<?xml version="1.0" encoding="UTF-8"?>
<svg xmlns="http://www.w3.org/2000/svg" xmlns:xlink="http://www.w3.org/1999/xlink" width="15pt" height="12pt" viewBox="0 0 16 16" version="1.1">
<g id="surface1">
<path style=" stroke:none;fill-rule:nonzero;fill:rgb(0%,0%,0%);fill-opacity:1;" d="M 8.464844 8.046875 L 8.464844 7.566406 L 8.628906 7.050781 C 9.78125 5.898438 10.6875 4.824219 10.847656 4.492188 L 10.648438 4.5625 C 10.648438 4.5625 10.832031 4.332031 10.8125 4.203125 C 10.667969 1.949219 9.40625 0.773438 9.058594 0.484375 C 9.570312 1.105469 9.429688 1.308594 9.429688 1.308594 C 9.207031 0.882812 8.742188 0.472656 8.652344 0.367188 L 8.542969 1.023438 C 8.980469 1.28125 8.863281 1.429688 8.863281 1.429688 C 8.761719 1.28125 8.480469 1.152344 8.480469 1.152344 L 8.449219 1.335938 C 8.585938 1.398438 9.1875 1.765625 9.191406 2.710938 C 9.191406 3.863281 8.542969 4.164062 8.429688 4.210938 C 8.050781 3.980469 7.640625 3.984375 7.539062 3.976562 C 7.4375 3.984375 7.027344 3.980469 6.648438 4.210938 C 6.535156 4.164062 5.882812 3.863281 5.882812 2.710938 C 5.890625 1.765625 6.492188 1.398438 6.625 1.335938 L 6.597656 1.152344 C 6.597656 1.152344 6.316406 1.28125 6.210938 1.429688 C 6.210938 1.429688 6.097656 1.28125 6.535156 1.023438 L 6.425781 0.367188 C 6.332031 0.472656 5.871094 0.882812 5.644531 1.308594 C 5.644531 1.308594 5.503906 1.105469 6.015625 0.484375 C 5.667969 0.773438 4.410156 1.949219 4.261719 4.203125 C 4.246094 4.332031 4.425781 4.5625 4.425781 4.5625 L 4.230469 4.492188 C 4.390625 4.824219 5.296875 5.898438 6.445312 7.050781 L 6.609375 7.566406 L 6.609375 8.046875 L 6.464844 7.53125 L 6.132812 6.980469 L 6.132812 7.542969 C 6.269531 7.933594 6.804688 8.722656 6.804688 8.722656 L 6.804688 7.085938 L 4.757812 4.835938 C 4.757812 4.835938 6.035156 5.886719 6.402344 6.261719 L 6.59375 6.066406 C 6.355469 5.894531 5.324219 4.851562 5.230469 3.929688 C 6.007812 5.585938 6.753906 5.792969 7.300781 6.4375 L 7.300781 6.59375 L 7.777344 6.59375 L 7.777344 6.4375 C 8.324219 5.792969 9.070312 5.585938 9.84375 3.929688 C 9.753906 4.851562 8.722656 5.894531 8.484375 6.066406 L 8.675781 6.261719 C 9.042969 5.886719 10.320312 4.835938 10.320312 4.835938 L 8.273438 7.085938 L 8.273438 8.722656 C 8.273438 8.722656 8.808594 7.933594 8.945312 7.542969 L 8.945312 6.980469 L 8.613281 7.53125 Z M 7.539062 6.070312 C 7.195312 5.839844 6.3125 5.300781 5.949219 4.460938 C 6.152344 4.703125 6.375 4.929688 6.609375 5.136719 C 6.609375 5.136719 6.589844 4.542969 6.632812 4.414062 C 6.714844 5.125 6.886719 5.429688 7.539062 5.808594 C 8.191406 5.429688 8.359375 5.125 8.441406 4.414062 C 8.488281 4.542969 8.464844 5.136719 8.464844 5.136719 C 8.703125 4.929688 8.925781 4.703125 9.128906 4.460938 C 8.761719 5.300781 7.882812 5.839844 7.539062 6.070312 Z M 7.539062 6.070312 "/>
</g>
</svg>
