<svg id="Layer_1" data-name="Layer 1" xmlns="http://www.w3.org/2000/svg" xmlns:xlink="http://www.w3.org/1999/xlink" width="780" height="619" viewBox="0 0 780 619">
  <metadata><?xpacket begin="﻿" id="W5M0MpCehiHzreSzNTczkc9d"?>
<x:xmpmeta xmlns:x="adobe:ns:meta/" x:xmptk="Adobe XMP Core 5.6-c138 79.159824, 2016/09/14-01:09:01        ">
   <rdf:RDF xmlns:rdf="http://www.w3.org/1999/02/22-rdf-syntax-ns#">
      <rdf:Description rdf:about=""/>
   </rdf:RDF>
</x:xmpmeta>
                                                                                                    
                                                                                                    
                                                                                                    
                           
<?xpacket end="w"?></metadata>
  <path class="cls-1" d="M440.227,415.119V390.2l8.552-26.577C508.647,304.3,555.686,248.776,564,231.691l-10.215,3.56s9.5-11.864,8.552-18.51c-7.6-116.273-73.17-176.862-91.226-191.732,26.607,31.955,19.326,42.4,19.326,42.4C478.714,45.576,454.64,24.377,449.888,19l-5.7,33.853c22.806,13.289,16.79,20.882,16.79,20.882C455.591,66.141,441.021,59.5,441.021,59.5l-1.586,9.491c6.973,3.165,38.327,22.149,38.565,70.872,0,59.323-33.735,74.985-39.674,77.357-19.718-11.865-41.1-11.627-46.326-12.1-5.226.474-26.608,0.236-46.324,12.1C339.735,214.844,306,199.182,306,139.859c0.238-48.723,31.6-67.707,38.564-70.872L342.983,59.5s-14.574,6.644-19.955,14.238c0,0-6.022-7.593,16.786-20.882L334.112,19c-4.752,5.378-28.824,26.577-40.543,48.407,0,0-7.288-10.443,19.32-42.4-18.054,14.87-83.625,75.459-91.226,191.732-0.95,6.646,8.554,18.51,8.554,18.51L220,231.691c8.316,17.085,55.355,72.612,115.221,131.935l8.554,26.577v24.916l-7.6-26.577L318.83,360.067v28.95C325.957,409.186,353.751,450,353.751,450V365.525L247.32,249.488s66.52,54.1,85.526,73.56l9.978-10.2c-12.355-8.78-66.045-62.646-70.8-110.1,40.388,85.426,79.111,96.1,107.62,129.325V340.2h24.707v-8.131c28.508-33.221,67.233-43.9,107.619-129.325-4.75,47.459-58.442,101.325-70.8,110.1l9.976,10.2c19.006-19.458,85.526-73.56,85.526-73.56L430.249,365.525V450s27.8-40.815,34.923-60.984v-28.95l-17.343,28.475ZM392,313.083c-17.818-11.865-63.668-39.629-82.672-83.053a314.117,314.117,0,0,0,34.447,34.882s-1.189-30.61,1.186-37.255c4.276,36.781,13.068,52.442,47.039,71.9,33.973-19.458,42.763-35.119,47.039-71.9,2.375,6.645,1.188,37.255,1.188,37.255a314.117,314.117,0,0,0,34.447-34.882C455.668,273.454,409.818,301.218,392,313.083Z"/>
</svg>
