<?xml version="1.0" encoding="UTF-8"?>
<svg xmlns="http://www.w3.org/2000/svg" xmlns:xlink="http://www.w3.org/1999/xlink" width="16pt" height="16pt" viewBox="0 0 16 16" version="1.1">
<g id="surface1">
<path style=" stroke:none;fill-rule:nonzero;fill:rgb(0%,0%,0%);fill-opacity:1;" d="M 9.777344 14.660156 L 9.777344 13.738281 L 10.09375 12.761719 C 12.300781 10.574219 14.035156 8.527344 14.339844 7.894531 L 13.964844 8.027344 C 13.964844 8.027344 14.316406 7.589844 14.28125 7.34375 C 14 3.058594 11.582031 0.824219 10.917969 0.277344 C 11.898438 1.453125 11.628906 1.839844 11.628906 1.839844 C 11.195312 1.035156 10.308594 0.253906 10.132812 0.0546875 L 9.925781 1.304688 C 10.765625 1.792969 10.542969 2.074219 10.542969 2.074219 C 10.34375 1.792969 9.808594 1.546875 9.808594 1.546875 L 9.75 1.898438 C 10.003906 2.015625 11.160156 2.714844 11.171875 4.511719 C 11.171875 6.699219 9.925781 7.277344 9.707031 7.363281 C 8.980469 6.925781 8.191406 6.933594 8 6.917969 C 7.808594 6.933594 7.019531 6.925781 6.292969 7.363281 C 6.074219 7.273438 4.828125 6.699219 4.828125 4.511719 C 4.839844 2.714844 5.996094 2.015625 6.25 1.898438 L 6.191406 1.546875 C 6.191406 1.546875 5.65625 1.792969 5.457031 2.074219 C 5.457031 2.074219 5.234375 1.792969 6.074219 1.304688 L 5.867188 0.0546875 C 5.691406 0.253906 4.804688 1.035156 4.371094 1.839844 C 4.371094 1.839844 4.101562 1.453125 5.082031 0.277344 C 4.417969 0.824219 2 3.058594 1.71875 7.34375 C 1.683594 7.589844 2.035156 8.027344 2.035156 8.027344 L 1.660156 7.894531 C 1.964844 8.527344 3.699219 10.574219 5.90625 12.761719 L 6.222656 13.738281 L 6.222656 14.660156 L 5.941406 13.679688 L 5.300781 12.628906 L 5.300781 13.695312 C 5.566406 14.441406 6.589844 15.945312 6.589844 15.945312 L 6.589844 12.832031 L 2.667969 8.550781 C 2.667969 8.550781 5.117188 10.546875 5.820312 11.265625 L 6.1875 10.886719 C 5.730469 10.566406 3.753906 8.578125 3.578125 6.828125 C 5.066406 9.980469 6.492188 10.371094 7.542969 11.597656 L 7.542969 11.898438 L 8.457031 11.898438 L 8.457031 11.597656 C 9.507812 10.371094 10.933594 9.980469 12.421875 6.828125 C 12.246094 8.578125 10.269531 10.566406 9.8125 10.886719 L 10.179688 11.265625 C 10.882812 10.546875 13.332031 8.550781 13.332031 8.550781 L 9.410156 12.832031 L 9.410156 15.945312 C 9.410156 15.945312 10.433594 14.441406 10.699219 13.695312 L 10.699219 12.628906 L 10.058594 13.679688 Z M 8 10.898438 C 7.34375 10.460938 5.652344 9.4375 4.953125 7.835938 C 5.339844 8.296875 5.765625 8.726562 6.222656 9.121094 C 6.222656 9.121094 6.179688 7.992188 6.265625 7.746094 C 6.421875 9.105469 6.746094 9.679688 8 10.398438 C 9.253906 9.679688 9.578125 9.105469 9.734375 7.746094 C 9.820312 7.992188 9.777344 9.121094 9.777344 9.121094 C 10.234375 8.726562 10.660156 8.296875 11.046875 7.835938 C 10.347656 9.4375 8.65625 10.460938 8 10.898438 Z M 8 10.898438 "/>
</g>
</svg>
