<?xml version="1.0" encoding="UTF-8" standalone="no"?>
<svg
   xmlns:dc="http://purl.org/dc/elements/1.1/"
   xmlns:cc="http://creativecommons.org/ns#"
   xmlns:rdf="http://www.w3.org/1999/02/22-rdf-syntax-ns#"
   xmlns:svg="http://www.w3.org/2000/svg"
   xmlns="http://www.w3.org/2000/svg"
   viewBox="0 0 712 712"
   height="712"
   width="712"
   xml:space="preserve"
   id="svg2"
   version="1.1"><metadata
     id="metadata8"><rdf:RDF><cc:Work
         rdf:about=""><dc:format>image/svg+xml</dc:format><dc:type
           rdf:resource="http://purl.org/dc/dcmitype/StillImage" /></cc:Work></rdf:RDF></metadata><defs
     id="defs6"><clipPath
       id="clipPath18"
       clipPathUnits="userSpaceOnUse"><path
         id="path16"
         d="M 0,534 H 534 V 0 H 0 Z" /></clipPath></defs><g
     transform="matrix(1.3333333,0,0,-1.3333333,0,712)"
     id="g10"><g
       id="g12"><g
         clip-path="url(#clipPath18)"
         id="g14"><g
           transform="translate(393.811,345.8316)"
           id="g20"><path
             id="path22"
             style="fill:#ffffff;fill-opacity:1;fill-rule:nonzero;stroke:none"
             d="m 0,0 c 24.538,-48.679 35.693,-96.638 39.077,-128.853 3.409,2.889 6.518,5.987 9.318,9.295 C 44.008,-86.276 33.201,-45.41 13.482,-2.216 9.21,-1.054 4.714,-0.293 0,0" /></g><g
           transform="translate(474.0073,283.56)"
           id="g24"><path
             id="path26"
             style="fill:#ffffff;fill-opacity:1;fill-rule:nonzero;stroke:none"
             d="m 0,0 c -2.746,20.364 -15.533,43.515 -36.693,60.311 0.831,-5.932 1.399,-11.795 1.735,-17.511 13.776,-14.605 22.245,-33.379 24.23,-48.275 4.005,-30.045 0.821,-64.541 -16.17,-93.955 -0.57,-8.119 -1.935,-15.947 -4.08,-23.411 C 0.994,-86.018 5.717,-42.414 0,0" /></g><g
           transform="translate(385.5994,134.225)"
           id="g28"><path
             id="path30"
             style="fill:#ffffff;fill-opacity:1;fill-rule:nonzero;stroke:none"
             d="m 0,0 c 4.978,2.231 10.126,4.9 15.408,8.084 0.431,0.963 0.862,1.934 1.291,2.917 13.266,30.416 21.331,57.602 26.214,83.512 -1.261,8.494 -3.199,19.129 -6.164,31.354 C 33.096,92.579 25.043,59.43 8.133,18.154 5.496,11.715 2.793,5.672 0,0" /></g><g
           transform="translate(425.0383,307.4895)"
           id="g32"><path
             id="path34"
             style="fill:#ffffff;fill-opacity:1;fill-rule:nonzero;stroke:none"
             d="m 0,0 c 3.757,-10.543 6.88,-20.55 9.476,-29.923 0.875,13.491 1.202,26.977 1.298,40.761 0.113,16.457 -1.829,35.048 -6.805,53.19 -4.505,3.565 -9.316,6.328 -14.259,8.445 C -2.33,50.589 0.215,26.875 0.073,6.612 0.058,4.391 0.033,2.189 0,0" /></g><g
           transform="translate(386.608,388.9227)"
           id="g36"><path
             id="path38"
             style="fill:#ffffff;fill-opacity:1;fill-rule:nonzero;stroke:none"
             d="m 0,0 c 28.927,-1.359 56.121,-14.859 67.722,-50.801 1.163,-3.607 2.212,-7.125 3.152,-10.559 8.947,-11.458 15.298,-24.325 18.197,-37.212 -0.856,16.01 -4.261,34.252 -10.972,55.045 C 63.415,1.968 23.976,16.608 -13.505,19.408 -8.758,13.225 -4.247,6.745 0,0" /></g><g
           transform="translate(458.4243,221.6535)"
           id="g40"><path
             id="path42"
             style="fill:#ffffff;fill-opacity:1;fill-rule:nonzero;stroke:none"
             d="M 0,0 C 3.127,14.302 3.772,27.883 3.416,39.047 -1.905,14.006 -15.995,-2.15 -31.262,-12.59 -32.789,-18.805 -34.49,-25.02 -36.37,-31.246 -23.389,-24.415 -10.119,-14.479 0,0" /></g><g
           transform="translate(444.3687,202.0113)"
           id="g44"><path
             id="path46"
             style="fill:#ffffff;fill-opacity:1;fill-rule:nonzero;stroke:none"
             d="m 0,0 c -3.23,-2.766 -6.676,-5.371 -10.334,-7.809 -0.733,-41.782 -19.658,-69.771 -47.398,-84.823 -3.677,-5.665 -7.502,-10.841 -11.493,-15.546 41.029,14.834 69.423,50.013 69.423,99.046 C 0.198,-6.198 0.132,-3.151 0,0" /></g><g
           transform="translate(380.6335,369.7762)"
           id="g48"><path
             id="path50"
             style="fill:#ffffff;fill-opacity:1;fill-rule:nonzero;stroke:none"
             d="m 0,0 c 5.226,-0.534 10.259,-1.404 15.092,-2.571 -0.889,1.692 -1.785,3.386 -2.702,5.082 -16.462,30.478 -37.594,55.26 -59.872,72.957 -3.747,0.455 -7.437,0.691 -11.034,0.691 -3.084,0 -6.086,-0.173 -9.012,-0.499 C -43.567,59.067 -19.689,32.831 0,0" /></g><g
           transform="translate(277.8203,439.6349)"
           id="g52"><path
             id="path54"
             style="fill:#ffffff;fill-opacity:1;fill-rule:nonzero;stroke:none"
             d="m 0,0 c 0.965,-0.781 1.902,-1.539 2.823,-2.285 16.915,10.338 37.922,14.465 62.771,9.042 28.083,-6.127 45.11,-20.81 57.944,-39.781 5.759,-1.525 11.199,-3.389 16.31,-5.591 C 126.46,-12.621 104.529,8.859 70.436,16.304 39.851,22.984 13.775,18.552 -7.75,5.74 -5.097,3.943 -2.508,2.031 0,0" /></g><g
           transform="translate(196.3198,437.5024)"
           id="g56"><path
             id="path58"
             style="fill:#ffffff;fill-opacity:1;fill-rule:nonzero;stroke:none"
             d="m 0,0 c 4.283,-1.538 8.723,-3.338 13.331,-5.409 3.968,10.138 11.867,19.559 25.463,27.044 16.093,8.861 35.757,7.742 56.297,-1.356 5.767,1.684 11.725,2.851 17.868,3.497 C 85.335,39.045 57.854,43.048 36.898,33.259 18.38,24.608 6.825,12.856 0,0" /></g><g
           transform="translate(247.7137,105.3549)"
           id="g60"><path
             id="path62"
             style="fill:#ffffff;fill-opacity:1;fill-rule:nonzero;stroke:none"
             d="M 0,0 C 6.127,1.673 11.893,3.458 17.327,5.333 4.444,12.581 -1.899,21.662 -3.581,31.408 c -0.604,3.504 -1.017,6.799 -0.093,10.712 0.924,3.914 6.739,8.375 9.302,5.407 2.8,-3.245 6.252,-6.183 9.475,-9.292 5.605,1.941 10.678,4.036 15.212,6.206 -3.849,6.266 -7.404,14.138 -6.947,20.42 0.458,6.281 3.075,10.52 8.603,12.187 11.415,3.442 21.999,2.374 25.566,-2.256 2.274,-2.952 2.84,-5.099 0.929,-12.432 C 56.556,55.027 28.877,37.837 -0.53,30.686 0.296,26.898 1.9,23.354 4.268,20.071 31.3,26.585 52.436,37.346 62.531,45.233 c 0,0 3.625,2.818 6.895,4.926 3.271,2.108 6.909,2.389 10.183,1.996 2.641,-0.469 5.128,-1.09 5.926,-3.136 0.424,-1.081 0.58,-2.506 0.793,-3.786 3.81,3.469 7.224,6.844 10.35,10.045 -0.094,0.709 -0.301,1.34 -0.592,3.327 -0.29,1.986 0.873,7.627 4.257,8.472 5.232,1.305 5.352,-2.019 4.758,-4.156 -0.324,-1.158 -2.535,-4.692 -4.491,-7.683 C 96.402,50.874 91.665,46.12 86.1,41.202 79.368,35.304 71.4,29.176 61.657,23.216 67.141,21.2 73.061,19.772 79.275,18.989 c 6.527,4.161 12.301,8.341 17.47,12.437 -0.006,0.015 -0.01,0.029 -0.015,0.045 15.64,12.39 32.343,29.791 34.477,31.837 2.133,2.048 4.192,3.572 9.673,6.772 5.481,3.198 8.032,3.11 12.757,5.157 2.108,6.12 4.032,12.142 5.782,18.099 -13.375,-4.56 -29.007,-6.117 -37.442,-2.982 -8.435,3.137 -9.809,6.612 -13.31,13.049 -6.778,12.464 -6.896,19.112 -13.912,22.317 -7.016,3.205 -22.831,5.462 -27.349,26.236 -4.519,20.774 -1.427,42.142 4.4,49.621 5.826,7.479 7.853,9.191 14.506,12.228 20.81,9.496 20.869,17.035 27.052,22.139 0.95,0.785 1.723,1.526 2.445,2.235 3.051,2.423 6.572,4.287 11.289,5.066 17.824,2.947 33.125,-0.539 45.766,-7.644 -0.524,4.921 -1.222,9.904 -2.118,14.903 -20.171,10.031 -45.318,14.571 -74.683,9.124 -8.344,-1.548 -13.881,-4.571 -21.833,-7.494 -7.954,-2.923 -17.15,1.224 -10.273,9.394 1.746,2.073 3.381,4.053 6.551,5.841 3.17,1.786 5.376,2.748 8.251,4.031 11.585,5.172 25.064,9.265 38.919,11.15 -5.214,7.342 -10.657,14.284 -16.279,20.766 -9.394,-0.39 -20.213,-1.851 -26.032,-2.44 -5.82,-0.589 -9.06,1.857 -12.536,3.822 -7.924,5.899 -18.154,14.12 -34.522,27.37 -11.615,9.402 -24.85,16.142 -38.12,19.963 -0.474,-0.24 -0.945,-0.486 -1.41,-0.743 -5.039,-2.774 -9.226,-5.808 -12.69,-9.025 14.703,-2.765 30.868,-9.573 44.139,-20.356 13.952,-11.337 18.206,-24.704 19.888,-36.34 0.168,-1.155 0.266,-1.815 0.311,-3.475 0.047,-1.659 -0.815,-3.004 -1.678,-3.707 -2.718,-2.211 -8.249,3.916 -13.274,6.929 -2.904,2.223 -5.982,4.456 -9.319,6.723 -3.764,2.558 -7.468,5.013 -11.113,7.371 -3.931,-6.369 -7.327,-13.324 -10.143,-20.75 3.692,-5.018 7.901,-11.893 9.644,-16.1 1.743,-4.206 1.807,-7.837 0.673,-10.29 -1.401,-3.03 -5.825,-9.296 -13.094,-7.378 -7.269,1.917 -6.375,9.465 -5.584,15.816 5.308,23.027 15.847,44.264 31.304,59.454 -3.615,2.885 -7.555,5.533 -11.704,7.903 -14.439,-12.917 -26.266,-30.211 -35.458,-50.71 -0.19,-0.422 -0.226,-0.513 -0.565,-1.268 -0.803,-1.788 -2.853,-1.544 -3.596,0.022 -0.282,0.594 -0.385,0.847 -0.574,1.275 -4.022,9.093 -6.995,19.365 -7.268,29.685 -5.63,3.508 -11.066,6.374 -16.297,8.602 -2.454,-10.066 -2.772,-20.285 -1.894,-29.82 0.158,-1.716 0.303,-2.252 0.534,-3.917 0.028,-0.267 0.402,-1.515 -0.223,-1.559 -0.349,-0.025 -1.27,1.562 -1.427,1.781 -1.017,1.66 -1.304,2.068 -2.525,3.581 -5.657,7.005 -13.679,12.164 -25.732,13.032 -10.722,0.773 -22.284,-0.972 -33.613,-5.296 -2.457,-4.819 -4.631,-10.233 -6.51,-16.211 10.888,5.567 22.052,7.726 31.726,6.586 25.225,-2.974 25.025,-18.049 24.213,-22.17 -0.49,-2.493 -2.607,-2.523 -4.95,-2.523 -2.478,0 -5.264,0.014 -7.874,0.032 -7.606,0.617 -15.399,0.53 -23.172,-0.401 -1.869,-4.868 -3.708,-9.939 -5.517,-15.209 16.143,1.05 29.297,-4.241 36.802,-6.503 21.998,-6.629 31.101,-15.861 39.409,-27.368 5.162,-12.231 7.725,-25.405 9.58,-34.362 2.854,-13.771 1.696,-21.754 -2.14,-27.304 -6.633,-9.598 -13.332,-27.17 -18.702,-30.879 -8.576,-5.921 -26.334,-7.643 -31.417,-12.986 -5.308,-5.578 -7.448,-9.838 -11.965,-11.274 -2.401,-0.765 -4.292,-1.24 -7.298,-1.902 -12.923,-2.85 -28.529,1.171 -42.374,11.419 0.076,-5.029 0.323,-9.919 0.744,-14.666 17.101,-12.923 35.852,-19.863 50.79,-19.313 1.187,0.044 1.919,0.102 3.485,0.275 2.069,0.226 3.367,-1.034 3.862,-2.492 0.496,-1.459 1.041,-2.852 1.607,-4.341 3.641,-9.571 8.553,-20.824 14.704,-32.399 6.483,-0.835 13.109,-1.292 19.835,-1.367 -6.27,17.703 -7.737,34.454 -3.319,43.508 1.211,2.483 3.294,4.888 4.982,5.574 1.69,0.684 3.057,1.633 7.932,1.99 4.875,0.356 10.428,-0.861 10.357,-3.487 -0.072,-2.627 -1.118,-4.924 -1.498,-6.722 C -35.786,37.896 -28.37,15.753 0,0" /></g><g
           transform="translate(345.0594,86.9108)"
           id="g64"><path
             id="path66"
             style="fill:#ffffff;fill-opacity:1;fill-rule:nonzero;stroke:none"
             d="M 0,0 C 4.957,3.508 9.604,7.594 13.989,12.282 -4.084,8.229 -24.025,8.156 -44.19,11.921 c -4.428,0.826 -8.556,1.754 -12.399,2.773 -5.437,-2.183 -11.057,-4.241 -16.871,-6.18 8.45,-2.639 17.983,-4.917 28.679,-6.836 C -29.302,-1.096 -14.22,-1.59 0,0" /></g><g
           transform="translate(424.0582,155.6551)"
           id="g68"><path
             id="path70"
             style="fill:#ffffff;fill-opacity:1;fill-rule:nonzero;stroke:none"
             d="m 0,0 c -3.333,-3.006 -6.899,-5.889 -10.721,-8.629 -23.418,-16.791 -47.229,-24.75 -68.498,-26.057 -0.971,-3.554 -2.151,-7.019 -3.538,-10.38 21.907,0.434 46.121,6.788 69.041,21.707 C -7.959,-16.431 -3.382,-8.632 0,0" /></g><g
           transform="translate(332.0492,98.9441)"
           id="g72"><path
             id="path74"
             style="fill:#ffffff;fill-opacity:1;fill-rule:nonzero;stroke:none"
             d="M 0,0 C 6.576,10.274 10.671,21.912 12.373,34.232 8.62,31.327 4.554,28.382 0.121,25.429 -2.374,16.757 -6.639,8.164 -12.496,0.352 -9.009,0.108 -5.545,-0.017 -2.119,-0.017 -1.411,-0.017 -0.705,-0.011 0,0" /></g><g
           transform="translate(293.4784,133.4932)"
           id="g76"><path
             id="path78"
             style="fill:#ffffff;fill-opacity:1;fill-rule:nonzero;stroke:none"
             d="m 0,0 c -1.02,0.698 -2.019,1.44 -2.995,2.217 -3.934,-1.832 -8.175,-3.623 -12.68,-5.326 2.128,-1.663 4.345,-3.298 6.683,-4.897 10.13,-6.931 23.823,-11.988 39.452,-13.986 1.715,3.24 3.152,6.525 4.318,9.818 C 21.313,-10.722 9.406,-6.434 0,0" /></g><g
           transform="translate(373.0792,112.3586)"
           id="g80"><path
             id="path82"
             style="fill:#ffffff;fill-opacity:1;fill-rule:nonzero;stroke:none"
             d="m 0,0 c -17.337,-25.704 -38.736,-39.907 -68.98,-43.872 -7.734,-4.602 -16.59,-8.148 -27.68,-10.426 52.785,-1.992 86.015,15.599 111.917,59.48 C 10.021,3.046 4.915,1.346 0,0" /></g><g
           transform="translate(207.2643,116.8778)"
           id="g84"><path
             id="path86"
             style="fill:#ffffff;fill-opacity:1;fill-rule:nonzero;stroke:none"
             d="m 0,0 c -0.838,-0.011 -1.675,-0.017 -2.51,-0.017 h -0.006 c -4.847,0 -9.642,0.188 -14.384,0.548 11.348,-17.77 25.585,-34.706 42.6,-45.874 6.415,-1.663 12.827,-2.52 19.16,-2.52 2.66,0 5.293,0.122 7.891,0.354 C 29.652,-42.081 11.377,-21.927 0,0" /></g><g
           transform="translate(225.2887,402.3531)"
           id="g88"><path
             id="path90"
             style="fill:#ffffff;fill-opacity:1;fill-rule:nonzero;stroke:none"
             d="M 0,0 C 2.856,4.852 5.877,9.429 9.057,13.724 -9.122,24.262 -25.618,31.778 -40.359,35.77 -43.291,33.619 -46.769,30.646 -50.677,26.393 -37.61,24.056 -22.788,17.057 -6.339,4.976 -4.139,3.36 -2.028,1.701 0,0" /></g><g
           transform="translate(153.844,407.1487)"
           id="g92"><path
             id="path94"
             style="fill:#ffffff;fill-opacity:1;fill-rule:nonzero;stroke:none"
             d="m 0,0 c 0.586,0 1.172,-0.01 1.757,-0.024 15.837,27.113 28.961,34.536 34.736,37.816 2.637,1.498 5.828,2.582 9.427,3.257 0.096,0.128 0.189,0.257 0.285,0.384 3.462,4.529 7.526,8.693 12.156,12.478 -7.686,-0.075 -15,-1.294 -21.582,-3.718 C 27.323,46.71 9.311,35.291 -10.369,-0.704 -6.903,-0.239 -3.442,0 0,0" /></g><g
           transform="translate(110.5027,359.7524)"
           id="g96"><path
             id="path98"
             style="fill:#ffffff;fill-opacity:1;fill-rule:nonzero;stroke:none"
             d="m 0,0 c 6.233,38.52 20.951,62.47 43.115,68.417 3.7,5.186 7.278,9.552 10.669,13.232 C 19.274,82.625 -2.578,56.901 -10.403,-5.079 -7.057,-3.186 -3.586,-1.493 0,0" /></g><g
           transform="translate(142.7769,130.788)"
           id="g100"><path
             id="path102"
             style="fill:#ffffff;fill-opacity:1;fill-rule:nonzero;stroke:none"
             d="m 0,0 c 6.02,-9.512 12.474,-18.353 19.267,-26.357 5.732,-2.097 11.846,-3.64 18.317,-4.625 -7.65,7.45 -15.05,16.112 -22.015,25.948 23.025,-6.224 45.696,-7.137 66.372,-5.01 C 79.408,-6.74 77.314,-3.221 75.652,0.533 53.659,-1.389 29.867,0.362 7.016,8.019 c -6.702,11.042 -12.871,23.29 -18.309,36.72 -4.76,1.763 -9.576,4.013 -14.349,6.705 5.008,-13.053 10.815,-25.558 17.267,-37.269 -4.59,2.155 -9.114,4.579 -13.548,7.298 -30.386,18.628 -45.7,47.92 -50.912,77.884 -4.917,8.92 -9.269,19.492 -11.863,31.644 C -86.618,88.432 -72.512,40.94 -28.732,14.102 -19.237,8.28 -9.621,3.637 0,0" /></g><g
           transform="translate(88.5718,224.2917)"
           id="g104"><path
             id="path106"
             style="fill:#ffffff;fill-opacity:1;fill-rule:nonzero;stroke:none"
             d="m 0,0 c -11.332,15.213 -19.117,36.192 -19.117,62.341 0,37.856 12.897,64.906 29.809,81.738 1.148,6.561 2.496,12.714 4.041,18.436 -25.112,-18.504 -44.885,-51.876 -44.885,-101.002 0,-30.917 12.513,-57.099 29.663,-76.362 C -0.476,-10.007 -0.313,-5.056 0,0" /></g><g
           transform="translate(132.9481,385.021)"
           id="g108"><path
             id="path110"
             style="fill:#ffffff;fill-opacity:1;fill-rule:nonzero;stroke:none"
             d="m 0,0 c -7.698,-17.341 -15.463,-38.736 -22.904,-65.126 -0.223,-11.817 0.107,-24.437 0.996,-37.732 0.021,-0.315 0.045,-0.626 0.066,-0.942 11.167,47.936 22.9,81.62 33.897,105.42 C 8.138,1.593 4.085,1.045 0,0" /></g><g
           transform="translate(80.9783,335.1565)"
           id="g112"><path
             id="path114"
             style="fill:#ffffff;fill-opacity:1;fill-rule:nonzero;stroke:none"
             d="m 0,0 c -5.227,-12.952 -8.107,-27.538 -8.593,-43.587 5.086,19.742 14.002,35.727 24.537,43.499 6.063,4.47 12.004,7.641 17.74,9.824 1.715,5.241 3.468,10.334 5.256,15.261 C 28.354,21.684 18.126,16.53 8.81,9.171 5.747,6.751 2.792,3.66 0,0" /></g><g
           transform="translate(107.5541,165.6139)"
           id="g116"><path
             id="path118"
             style="fill:#ffffff;fill-opacity:1;fill-rule:nonzero;stroke:none"
             d="M 0,0 C -4.269,15.889 -6.1,34.231 -5.276,54.798 -8.364,67.6 -10.59,80.395 -11.941,93.107 -17.06,64.013 -17.85,38.438 -14.934,16.468 -10.781,10.732 -5.851,5.174 0,0" /></g><g
           transform="translate(305.6711,84.8346)"
           id="g120"><path
             id="path122"
             style="fill:#ffffff;fill-opacity:1;fill-rule:nonzero;stroke:none"
             d="m 0,0 c -13.748,-11.22 -33.729,-18.651 -55.357,-18.651 -14.953,0 -31.093,5.166 -46.959,15.248 -1.537,-0.047 -3.066,-0.073 -4.581,-0.073 h -0.005 c -4.859,0 -9.596,0.238 -14.205,0.709 18.555,-15.209 38.58,-24.093 58.523,-24.093 39.332,0 53.602,7.14 75.98,25.488 C 8.953,-1.1 4.479,-0.641 0,0" /></g><g
           transform="translate(212.4133,84.8215)"
           id="g124"><path
             id="path126"
             style="fill:#ffffff;fill-opacity:1;fill-rule:nonzero;stroke:none"
             d="m 0,0 c -3.35,3.361 -6.644,6.999 -9.876,10.909 -20.874,-0.646 -38.945,3.341 -53.773,11.661 -12.673,7.46 -22.973,18.151 -30.64,31.794 -1.872,1.057 -3.73,2.147 -5.572,3.277 -4.478,2.744 -8.708,5.733 -12.69,8.958 3.258,-9.117 7.365,-17.325 12.241,-24.613 h -0.046 C -79.294,10.472 -43.813,-3.836 0,0" /></g><g
           transform="translate(304.2728,112.9123)"
           id="g128"><path
             id="path130"
             style="fill:#ffffff;fill-opacity:1;fill-rule:nonzero;stroke:none"
             d="m 0,0 c -0.277,0.089 -0.554,0.177 -0.829,0.269 -0.536,0.175 -1.068,0.354 -1.597,0.54 -0.153,0.053 -0.303,0.109 -0.456,0.163 -0.495,0.177 -0.991,0.354 -1.481,0.538 -0.132,0.049 -0.262,0.102 -0.395,0.152 -0.507,0.193 -1.013,0.387 -1.513,0.588 -0.111,0.045 -0.221,0.092 -0.331,0.136 -0.519,0.21 -1.035,0.423 -1.544,0.641 -0.097,0.041 -0.19,0.082 -0.285,0.125 -0.522,0.225 -1.041,0.454 -1.554,0.686 -0.087,0.04 -0.173,0.081 -0.26,0.122 -0.517,0.238 -1.029,0.477 -1.537,0.725 -0.088,0.042 -0.175,0.087 -0.264,0.13 -0.526,0.258 -1.048,0.518 -1.565,0.785 -14.874,-7.004 -32.975,-13.4 -55.354,-18.43 -4.137,-0.93 -8.191,-1.706 -12.166,-2.341 0.2,-0.244 0.401,-0.481 0.602,-0.722 -0.004,-10e-4 -0.006,-0.002 -0.01,-0.003 2.814,-3.38 5.746,-6.459 8.773,-9.22 0.008,0.001 0.016,0.003 0.024,0.005 0.016,-0.015 0.032,-0.03 0.047,-0.043 2.277,0.457 4.569,0.955 6.882,1.502 27.268,6.448 48.885,14.524 66.35,23.169 C 1.02,-0.327 0.51,-0.164 0,0" /></g><g
           transform="translate(98.6179,332.7756)"
           id="g132"><path
             id="path134"
             style="fill:#ffffff;fill-opacity:1;fill-rule:nonzero;stroke:none"
             d="m 0,0 c -0.211,-0.155 -0.42,-0.322 -0.63,-0.484 -0.959,-14.52 -1.313,-30.63 -1.05,-48.42 0.373,-25.232 4.421,-50.661 11.294,-74.894 4.558,-3.189 9.331,-5.712 14.138,-7.502 C 16.559,-107.411 11.56,-80.535 9.573,-50.802 8.177,-29.897 8.153,-10.905 9.438,5.971 6.236,4.268 3.087,2.276 0,0" /></g></g></g></g></svg>