<?xml version="1.0" standalone="no"?> 
<!--
Font Awesome Pro 5.0.2 by @fontawesome - http://fontawesome.com
License - http://fontawesome.com/license (Commercial License)
-->
<!DOCTYPE svg PUBLIC "-//W3C//DTD SVG 1.1//EN" "http://www.w3.org/Graphics/SVG/1.1/DTD/svg11.dtd" >
<svg xmlns="http://www.w3.org/2000/svg">
<defs>
  <font id="fontawesome-pro" horiz-adv-x="640">
    <font-face font-family="Font Awesome 5 Pro"
      units-per-em="512" ascent="448"
      descent="64"
      font-weight="300"
      font-style="Light" />
    <missing-glyph horiz-adv-x="0" />
    <glyph glyph-name="address-book"
      unicode="&#xF2B9;"
      horiz-adv-x="448" d=" M298.7 195.78C312.02 212.26 320 233.22 320 256C320 308.93 276.93 352 224 352S128 308.93 128 256C128 233.22 135.98 212.26 149.3 195.78C134.46 190.55 121.69 181.2 112.13 168.54C101.58 154.55 96 137.89 96 120.36V56C96 25.12 121.12 0 152 0H296C326.88 0 352 25.12 352 56V120.36C352 137.89 346.42 154.55 335.87 168.54C326.31 181.2000000000001 313.54 190.55 298.7 195.78zM224 320C259.35 320 288 291.35 288 256C288 220.535 259.238 192 224 192C188.773 192 160 220.524 160 256C160 291.35 188.65 320 224 320zM320 56C320 42.75 309.25 32 296 32H152C138.75 32 128 42.75 128 56V120.36C128 141.8 142.21 160.63 162.81 166.52L179.1 171.17C192.51 164.04 207.79 160 224 160S255.49 164.04 268.9 171.17L285.19 166.5200000000001C305.79 160.6300000000001 320 141.8000000000001 320 120.36V56zM436 288C442.627 288 448 293.373 448 300V340C448 346.627 442.627 352 436 352H416V400C416 426.51 394.51 448 368 448H80C53.49 448 32 426.51 32 400V-16C32 -42.51 53.49 -64 80 -64H368C394.51 -64 416 -42.51 416 -16V32H436C442.627 32 448 37.373 448 44V84C448 90.627 442.627 96 436 96H416V160H436C442.627 160 448 165.373 448 172V212C448 218.627 442.627 224 436 224H416V288H436zM384 -16C384 -24.822 376.822 -32 368 -32H80C71.178 -32 64 -24.822 64 -16V400C64 408.822 71.178 416 80 416H368C376.822 416 384 408.822 384 400V-16z" />
    <glyph glyph-name="address-card"
      unicode="&#xF2BB;"
      horiz-adv-x="512" d=" M464 384H48C21.49 384 0 362.51 0 336V48C0 21.49 21.49 0 48 0H464C490.51 0 512 21.49 512 48V336C512 362.51 490.51 384 464 384zM480 48C480 39.178 472.822 32 464 32H48C39.178 32 32 39.178 32 48V336C32 344.822 39.178 352 48 352H464C472.822 352 480 344.822 480 336V48zM436 128H332C325.373 128 320 133.373 320 140V148C320 154.627 325.373 160 332 160H436C442.627 160 448 154.627 448 148V140C448 133.373 442.627 128 436 128zM436 192H332C325.373 192 320 197.373 320 204V212C320 218.627 325.373 224 332 224H436C442.627 224 448 218.627 448 212V204C448 197.373 442.627 192 436 192zM436 256H332C325.373 256 320 261.373 320 268V276C320 282.627 325.373 288 332 288H436C442.627 288 448 282.627 448 276V268C448 261.373 442.627 256 436 256zM250.16 195.83L244.02 197.94C251.62 210.17 256 224.58 256 240C256 284.11 220.11 320 176 320S96 284.11 96 240C96 224.58 100.38 210.17 107.98 197.94L101.84 195.83C79.21 188.07 64 166.78 64 142.86V108C64 83.74 83.74 64 108 64H244C268.26 64 288 83.74 288 108V142.86C288 166.78 272.79 188.07 250.16 195.83zM128 240C128 266.51 149.49 288 176 288S224 266.51 224 240C224 213.575 202.587 192 176 192C149.467 192 128 213.52 128 240zM256 108C256 101.37 250.63 96 244 96H108C101.37 96 96 101.37 96 108V142.86C96 153.11 102.52 162.23 112.22 165.56L132.88 172.64C145.33 164.64 160.13 160 176 160S206.67 164.64 219.12 172.64L239.78 165.56C249.48 162.23 256 153.11 256 142.86V108z" />
    <glyph glyph-name="adjust"
      unicode="&#xF042;"
      horiz-adv-x="512" d=" M256 408C375.945 408 472 310.663 472 192C472 72.055 374.663 -24 256 -24C136.055 -24 40 73.337 40 192C40 311.945 137.337 408 256 408M256 440C119.033 440 8 328.967 8 192S119.033 -56 256 -56S504 55.033 504 192S392.967 440 256 440zM224 315.99V68.01C170.145 81.81 128 131.011 128 192C128 252.99 170.145 302.19 224 315.99M256 352C167.634 352 96 280.366 96 192S167.634 32 256 32V352z" />
    <glyph glyph-name="alarm-clock"
      unicode="&#xF34E;"
      horiz-adv-x="448" d=" M298.3 99.3L293.8 92.7C290 87.2 282.6 85.9 277.1 89.6L213.3 133.5C210 135.6999999999999 208.1 139.3999999999999 208.1 143.3999999999999V276C208.1 282.6 213.5 288 220.1 288H228.1C234.7 288 240.1 282.6 240.1 276V154L295.3 116C300.6 112.2 302 104.8 298.3 99.3zM377.6 -3L411.3 -36.7C417.5 -42.9 417.5 -53.1 411.3 -59.3C405.1 -65.6 394.9000000000001 -65.5 388.7 -59.3L352.7 -23.3C316.3 -49 271.9 -64 224 -64S131.7 -49 95.3 -23.3L59.3 -59.3C53.1 -65.6 42.9 -65.5 36.7 -59.3C30.5 -53.1 30.5 -42.9 36.7 -36.7L70.4 -3C27 37.8 0 95.8 0 160C0 197.7 9.3 233.3 25.8 264.5C9.7 283.9 0 308.8 0 336C0 397.9 50.1 448 112 448C156.8 448 195.4 421.7 213.3 383.8C220.4 384.1 227.8 384.1 234.6 383.8C252.4 421.4 290.9 448 336 448C397.9 448 448 397.9 448 336C448 308.8 438.3 283.9 422.2 264.5C438.7 233.3 448 197.7 448 160C448 95.8 421 37.8 377.6 -3zM268.9 379.5C323.9 368.3 371.5 337 403.8 293.6C411.5 305.9 416 320.4 416 336C416 380.1 380.1 416 336 416C307.8999999999999 416 283.2 401.4 268.9 379.5zM32 336C32 320.4 36.5 305.9 44.2 293.6C76.5 337 124.2 368.3 179.1 379.5C164.8 401.4 140.1 416 112 416C67.9 416 32 380.1 32 336zM224 352C118 352 32 266 32 160S118 -32 224 -32S416 54 416 160S330 352 224 352z" />
    <glyph glyph-name="align-center"
      unicode="&#xF037;"
      horiz-adv-x="448" d=" M352 396V372A6 6 0 0 0 346 366H102A6 6 0 0 0 96 372V396A6 6 0 0 0 102 402H346A6 6 0 0 0 352 396zM6 238H442A6 6 0 0 1 448 244V268A6 6 0 0 1 442 274H6A6 6 0 0 1 0 268V244A6 6 0 0 1 6 238zM6 -18H442A6 6 0 0 1 448 -12V12A6 6 0 0 1 442 18H6A6 6 0 0 1 0 12V-12A6 6 0 0 1 6 -18zM346 146H102A6 6 0 0 1 96 140V116A6 6 0 0 1 102 110H346A6 6 0 0 1 352 116V140A6 6 0 0 1 346 146z" />
    <glyph glyph-name="align-justify"
      unicode="&#xF039;"
      horiz-adv-x="448" d=" M0 372V396A6 6 0 0 0 6 402H442A6 6 0 0 0 448 396V372A6 6 0 0 0 442 366H6A6 6 0 0 0 0 372zM6 238H442A6 6 0 0 1 448 244V268A6 6 0 0 1 442 274H6A6 6 0 0 1 0 268V244A6 6 0 0 1 6 238zM6 -18H442A6 6 0 0 1 448 -12V12A6 6 0 0 1 442 18H6A6 6 0 0 1 0 12V-12A6 6 0 0 1 6 -18zM6 110H442A6 6 0 0 1 448 116V140A6 6 0 0 1 442 146H6A6 6 0 0 1 0 140V116A6 6 0 0 1 6 110z" />
    <glyph glyph-name="align-left"
      unicode="&#xF036;"
      horiz-adv-x="448" d=" M288 396V372A6 6 0 0 0 282 366H6A6 6 0 0 0 0 372V396A6 6 0 0 0 6 402H282A6 6 0 0 0 288 396zM6 238H442A6 6 0 0 1 448 244V268A6 6 0 0 1 442 274H6A6 6 0 0 1 0 268V244A6 6 0 0 1 6 238zM6 -18H442A6 6 0 0 1 448 -12V12A6 6 0 0 1 442 18H6A6 6 0 0 1 0 12V-12A6 6 0 0 1 6 -18zM282 146H6A6 6 0 0 1 0 140V116A6 6 0 0 1 6 110H282A6 6 0 0 1 288 116V140A6 6 0 0 1 282 146z" />
    <glyph glyph-name="align-right"
      unicode="&#xF038;"
      horiz-adv-x="448" d=" M160 372V396A6 6 0 0 0 166 402H442A6 6 0 0 0 448 396V372A6 6 0 0 0 442 366H166A6 6 0 0 0 160 372zM6 238H442A6 6 0 0 1 448 244V268A6 6 0 0 1 442 274H6A6 6 0 0 1 0 268V244A6 6 0 0 1 6 238zM6 -18H442A6 6 0 0 1 448 -12V12A6 6 0 0 1 442 18H6A6 6 0 0 1 0 12V-12A6 6 0 0 1 6 -18zM166 110H442A6 6 0 0 1 448 116V140A6 6 0 0 1 442 146H166A6 6 0 0 1 160 140V116A6 6 0 0 1 166 110z" />
    <glyph glyph-name="ambulance"
      unicode="&#xF0F9;"
      horiz-adv-x="640" d=" M592 416H272C245.49 416 224 394.51 224 368V320H179.882A48 48 0 0 1 145.941 305.9410000000001L46.059 206.059A48 48 0 0 1 32 172.118V64H20C13.373 64 8 58.627 8 52V44C8 37.373 13.373 32 20 32H65.604A80.321 80.321 0 0 1 64 16C64 -28.183 99.817 -64 144 -64S224 -28.183 224 16C224 21.48 223.446 26.83 222.396 32H417.603A80.321 80.321 0 0 1 415.999 16C415.999 -28.183 451.816 -64 495.999 -64S575.999 -28.183 575.999 16C575.999 21.48 575.445 26.83 574.395 32H592C618.51 32 640 53.49 640 80V368C640 394.51 618.51 416 592 416zM224 64H208.001C193.406 83.43 170.172 96 144 96S94.594 83.43 79.999 64H64V172.118C64 176.392 65.664 180.41 68.686 183.432L168.568 283.314A15.895 15.895 0 0 0 179.882 288H224V64zM608 80C608 71.178 600.823 64 592 64H560.001C545.406 83.43 522.172 96 496 96S446.594 83.43 431.999 64H256V368C256 376.822 263.177 384 272 384H592C600.823 384 608 376.822 608 368V80zM512 240V208C512 201.373 506.627 196 500 196H444V140C444 133.373 438.627 128 432 128H400C393.373 128 388 133.373 388 140V196H332C325.373 196 320 201.373 320 208V240C320 246.627 325.373 252 332 252H388V308C388 314.627 393.373 320 400 320H432C438.627 320 444 314.627 444 308V252H500C506.627 252 512 246.627 512 240zM106.243 170.243L181.758 245.758C185.538 249.538 192.001 246.861 192.001 241.515V166A6 6 0 0 0 186.001 160H110.486C105.14 160 102.463 166.463 106.243 170.243zM496 64C522.467 64 544 42.467 544 16S522.467 -32 496 -32S448 -10.467 448 16S469.533 64 496 64M144 64C170.467 64 192 42.467 192 16S170.467 -32 144 -32S96 -10.467 96 16S117.533 64 144 64" />
    <glyph glyph-name="american-sign-language-interpreting"
      unicode="&#xF2A3;"
      horiz-adv-x="640" d=" M635.911 234.747C635.866 234.84 594.654 317.879 594.654 317.879C585.094 337.1430000000001 561.016 346.35 540.258 335.894L484.972 307.9290000000001L406.0200000000001 315.3110000000001C400.9650000000001 315.7840000000001 373.5060000000001 315.9940000000001 346.6750000000001 299.5060000000001C339.1410000000001 313.904 328.1360000000001 319.9980000000001 313.8020000000001 325.6140000000001C330.7980000000001 358.125 306.9480000000001 402.636 261.9580000000001 396.4460000000001C263.498 423.781 241.849 448 213.389 448A48.61699999999999 48.61699999999999 0 0 1 182.337 436.754C137.321 399.511 108.261 346.904 100.635 289.079L68.081 229.913S20.03 202.35 19.942 202.298C1.691 191.519 -5.125 168.419 4.088 149.236C4.133 149.142 45.345 66.102 45.345 66.102C54.913 46.83 78.994 37.636 99.743 48.088L155.041 76.059C236.134 68.567 236.239 68.566 237.757 68.566C257.664 68.566 276.846 74.304 293.308 84.509C298.043 75.442 305.504 68.076 314.857 63.364C317.496 62.037 321.895 60.053 326.199 58.367C309.312 26.064 333.079 -18.647 378.043 -12.465C376.474 -40.3100000000001 398.724 -64 426.643 -64C437.992 -64 449.015 -60.005 457.695 -52.748C502.706 -15.496 531.744 37.107 539.365 94.901L571.92 154.067S619.9699999999999 181.63 620.058 181.682C638.31 192.462 645.126 215.563 635.911 234.747zM416.166 -2.077C428.693 8.579 439.2970000000001 20.273 447.681 32.678C452.695 40.096 443.676 48.647 436.535 43.759C416.639 30.139 394.744 21.791 371.462 18.948C349.817 16.266 345.232 49.7500000000001 367.229 52.2600000000001C382.611 54.1300000000001 397.419 59.285 411.245 67.5820000000001C418.988 72.2280000000001 414.2150000000001 84.2000000000001 405.407 82.2540000000001C381.093 76.8960000000001 352.595 80.5340000000001 329.255 91.9420000000001C308.5 102.3990000000001 324.737 131.7660000000001 343.648 122.4460000000001C364.0650000000001 112.1610000000001 388.185 110.6990000000001 409.822 118.4320000000001C418.231 121.4370000000001 416.078 133.9650000000001 407.13 133.9650000000001C373.749 133.9650000000001 348.204 149.0760000000001 335.194 176.5260000000001C325.759 196.3570000000001 355.74 211.1510000000001 365.185 190.9330000000001L365.236 190.828C372.242 176.3900000000001 386.4239999999999 167.42 402.247 167.42C424.798 167.42 443.144 185.876 443.144 208.561C443.144 233.973 421.915 249.703 402.247 249.703C386.424 249.703 372.242 240.733 365.236 226.295L365.185 226.1900000000001C355.752 205.998 325.7459999999999 220.738 335.199 240.6080000000001C347.677 266.9340000000001 373.79 283.312 403.42 283.4160000000001L488.886 275.425A7.967 7.967 0 0 1 493.242 276.251L554.656 307.315A8.382 8.382 0 0 0 565.9929999999999 303.653L607.0899999999999 220.854C609.0949999999999 216.631 607.665 211.554 603.8249999999999 209.258L550.161 178.477A7.993999999999999 7.993999999999999 0 0 1 547.1329999999999 175.394L509.0939999999999 106.2619999999999A7.977000000000001 7.977000000000001 0 0 1 508.1519999999999 103.286C502.4259999999999 51.62 477.2439999999999 4.9449999999999 437.197 -28.176C420.737 -41.993 398.514 -16.825 416.166 -2.0770000000001zM238.061 100.566C233.378 100.963 174.091 106.435 151.108 108.558A7.986999999999999 7.986999999999999 0 0 1 146.76 107.731L85.347 76.667A8.383 8.383 0 0 0 74.009 80.328L32.913 163.128C30.908 167.353 32.339 172.431 36.18 174.726L89.843 205.505A7.993999999999999 7.993999999999999 0 0 1 92.871 208.588L130.908 277.7200000000001C131.415 278.64 131.735 279.652 131.85 280.6960000000001C137.577 332.363 162.759 379.038 202.79 412.145C219.401 426.019 241.5180000000001 400.8330000000001 223.833 386.058C211.303 375.4 200.7 363.706 192.3180000000001 351.303C187.4 344.027 196.2000000000001 335.251 203.4640000000001 340.222C223.3610000000001 353.842 245.2550000000001 362.19 268.6230000000001 365.044C277.2220000000001 366.18 285.6970000000001 360.719 287.136 350.443C288.351 341.1720000000001 282.0590000000001 332.78 272.7700000000001 331.7200000000001C257.389 329.85 242.5810000000001 324.695 228.7550000000001 316.398C221.0420000000001 311.77 225.7330000000001 299.786 234.5930000000001 301.726C258.9060000000001 307.084 287.4070000000001 303.447 310.7440000000001 292.038C331.355 281.655 315.411 252.183 296.3180000000001 261.552C275.9060000000001 271.8230000000001 251.8030000000001 273.278 230.1780000000001 265.548C221.7690000000001 262.5420000000001 223.9220000000001 250.0150000000001 232.8700000000001 250.0150000000001C266.2510000000001 250.0150000000001 291.7960000000001 234.9040000000001 304.8050000000001 207.454C314.0470000000001 188.03 285.0450000000001 172.59 274.7640000000001 193.1520000000001C267.7580000000001 207.59 253.5760000000001 216.5600000000001 237.7530000000001 216.5600000000001C215.2020000000001 216.5600000000001 196.8560000000001 198.1040000000001 196.8560000000001 175.4190000000001C196.8560000000001 150.0070000000001 218.0850000000001 134.2770000000001 237.7530000000001 134.2770000000001C253.5760000000001 134.2770000000001 267.7580000000001 143.2470000000001 274.7640000000001 157.6850000000001C274.7820000000001 157.7200000000001 274.7980000000001 157.7560000000001 274.8150000000001 157.7910000000001C284.2630000000001 178.0150000000001 314.2320000000001 163.2010000000001 304.8000000000001 143.3720000000001C292.5210000000001 117.4610000000001 266.3500000000001 100.6850000000001 238.0610000000001 100.5660000000001zM247.967 175.419C246.013 172.081 244.417 166.278 237.756 166.278C234.969 166.278 228.859 168.58 228.859 175.419C228.859 180.545 232.767 184.56 237.756 184.56C244.354 184.561 245.914 178.926 247.967 175.419zM392.0320000000001 208.561C393.9790000000001 211.887 395.576 217.702 402.2430000000001 217.702C405.0300000000001 217.702 411.1410000000001 215.4 411.1410000000001 208.561C411.1410000000001 203.435 407.2330000000001 199.42 402.2430000000001 199.42C395.6450000000001 199.42 394.0860000000001 205.054 392.0320000000001 208.561z" />
    <glyph glyph-name="anchor"
      unicode="&#xF13D;"
      horiz-adv-x="576" d=" M504.485 183.515C499.799 188.201 492.201 188.201 487.514 183.515L420.485 116.486C412.925 108.926 418.279 96.001 428.9700000000001 96.001H478.099C461.111 27.251 390.501 -25.6 304 -31.452V256H356C362.627 256 368 261.373 368 268V276C368 282.627 362.627 288 356 288H304V322.016C332.513 329.355 353.336 355.849 351.933 386.963C350.453 419.774 323.832 446.421 291.022 447.93C254.302 449.6190000000001 224 420.348 224 384C224 354.179 244.396 329.121 272 322.016V288H220C213.373 288 208 282.627 208 276V268C208 261.373 213.373 256 220 256H272V-31.452C185.498 -25.6 114.888 27.251 97.901 96H147.03C157.721 96 163.075 108.926 155.515 116.485L88.486 183.515C83.8 188.201 76.202 188.201 71.515 183.515L4.486 116.485C-3.074 108.926 2.28 96 12.971 96H65.107C83.963 -0.392 182.863 -64 288 -64C398.901 -64 492.938 4.213 510.893 96H563.029C573.72 96 579.074 108.926 571.514 116.485L504.485 183.515zM256 384C256 401.645 270.355 416 288 416S320 401.645 320 384S305.645 352 288 352S256 366.355 256 384zM61.255 128L80 146.745L98.745 128H61.255zM477.255 128L496 146.745L514.745 128H477.255z" />
    <glyph glyph-name="angle-double-down"
      unicode="&#xF103;"
      horiz-adv-x="256" d=" M119.5 185.1L3.5 302.9C-1.2 307.6 -1.2 315.2000000000001 3.5 319.9L10.6 327C15.3 331.7 22.9 331.7 27.6 327L128 224.7L228.4 326.9C233.1 331.6 240.7 331.6 245.4 326.9L252.5 319.8C257.2 315.1 257.2 307.5 252.5 302.8L136.5 185C131.8 180.4 124.2 180.4 119.5 185.1zM136.5 57.1L252.5 174.9C257.2 179.6 257.2 187.2000000000001 252.5 191.9L245.4 199C240.7 203.7 233.1 203.7 228.4 199L128 96.7L27.6 198.9C22.9 203.6 15.3 203.6 10.6 198.9L3.5 191.8C-1.2 187.1 -1.2 179.5 3.5 174.8L119.5 57C124.2 52.4 131.8 52.4 136.5 57.1z" />
    <glyph glyph-name="angle-double-left"
      unicode="&#xF100;"
      horiz-adv-x="320" d=" M153.1 200.5L270.9 316.5C275.6 321.2 283.2 321.2 287.9 316.5L295 309.4C299.7 304.7000000000001 299.7 297.1 295 292.4L192.7 192L294.9 91.6C299.6 86.9 299.6 79.3 294.9 74.6L287.8 67.5C283.1 62.8 275.5 62.8 270.8 67.5L153 183.5C148.4 188.2 148.4 195.8 153.1 200.5zM25.1 183.5L142.9 67.5C147.6 62.8 155.2 62.8 159.9 67.5L167 74.6C171.7 79.3 171.7 86.9 167 91.6L64.7 192L166.9 292.4C171.6 297.1 171.6 304.7000000000001 166.9 309.4L159.8 316.5C155.1 321.2 147.5 321.2 142.8 316.5L25 200.5C20.4 195.8 20.4 188.2 25.1 183.5z" />
    <glyph glyph-name="angle-double-right"
      unicode="&#xF101;"
      horiz-adv-x="320" d=" M166.9 183.5L49.1 67.5C44.4 62.8 36.8 62.8 32.1 67.5L25 74.6C20.3 79.3 20.3 86.9 25 91.6L127.3 192L25.1 292.4C20.4 297.1 20.4 304.7000000000001 25.1 309.4L32.2 316.5C36.9 321.2 44.5 321.2 49.2 316.5L167 200.5C171.6 195.8 171.6 188.2 166.9 183.5zM294.9 200.5L177.1 316.5C172.4 321.2 164.8 321.2 160.1 316.5L153 309.4C148.3 304.7000000000001 148.3 297.1 153 292.4L255.3 192L153.1 91.6C148.4 86.9 148.4 79.3 153.1 74.6L160.2 67.5C164.9 62.8 172.5 62.8 177.2 67.5L295 183.5C299.6 188.2 299.6 195.8 294.9 200.5z" />
    <glyph glyph-name="angle-double-up"
      unicode="&#xF102;"
      horiz-adv-x="256" d=" M136.5 198.9L252.5 81.1C257.2 76.4 257.2 68.8 252.5 64.1L245.4 57C240.7 52.3 233.1 52.3 228.4 57L128 159.3L27.6 57.1C22.9 52.4 15.3 52.4 10.6 57.1L3.5 64.2000000000001C-1.2 68.9 -1.2 76.5000000000001 3.5 81.2000000000001L119.5 199.0000000000001C124.2 203.6000000000001 131.8 203.6000000000001 136.5 198.9000000000001zM119.5 326.9L3.5 209.1C-1.2 204.4 -1.2 196.8 3.5 192.1L10.6 185C15.3 180.3 22.9 180.3 27.6 185L128 287.3L228.4 185.1C233.1 180.4 240.7 180.4 245.4 185.1L252.5 192.2C257.2 196.9 257.2 204.5 252.5 209.2L136.5 327C131.8 331.6 124.2 331.6 119.5 326.9z" />
    <glyph glyph-name="angle-down"
      unicode="&#xF107;"
      horiz-adv-x="256" d=" M119.5 121.1L3.5 238.9C-1.2 243.6 -1.2 251.2 3.5 255.9L10.6 263C15.3 267.7 22.9 267.7 27.6 263L128 160.7L228.4 262.9C233.1 267.6 240.7 267.6 245.4 262.9L252.5 255.8C257.2 251.1 257.2 243.5 252.5 238.8L136.5 121C131.8 116.4 124.2 116.4 119.5 121.1z" />
    <glyph glyph-name="angle-left"
      unicode="&#xF104;"
      horiz-adv-x="192" d=" M25.1 200.5L142.9 316.5C147.6 321.2 155.2 321.2 159.9 316.5L167 309.4C171.7 304.7000000000001 171.7 297.1 167 292.4L64.7 192L166.9 91.6C171.6 86.9 171.6 79.3 166.9 74.6L159.8 67.5C155.1 62.8 147.5 62.8 142.8 67.5L25 183.5C20.4 188.2 20.4 195.8 25.1 200.5z" />
    <glyph glyph-name="angle-right"
      unicode="&#xF105;"
      horiz-adv-x="192" d=" M166.9 183.5L49.1 67.5C44.4 62.8 36.8 62.8 32.1 67.5L25 74.6C20.3 79.3 20.3 86.9 25 91.6L127.3 192L25.1 292.4C20.4 297.1 20.4 304.7000000000001 25.1 309.4L32.2 316.5C36.9 321.2 44.5 321.2 49.2 316.5L167 200.5C171.6 195.8 171.6 188.2 166.9 183.5z" />
    <glyph glyph-name="angle-up"
      unicode="&#xF106;"
      horiz-adv-x="256" d=" M136.5 262.9L252.5 145.1C257.2 140.4 257.2 132.8 252.5 128.1L245.4 121C240.7 116.3 233.1 116.3 228.4 121L128 223.3L27.6 121.1C22.9 116.4 15.3 116.4 10.6 121.1L3.5 128.2000000000001C-1.2 132.9 -1.2 140.5000000000001 3.5 145.2000000000001L119.5 263.0000000000001C124.2 267.6 131.8 267.6 136.5 262.9000000000001z" />
    <glyph glyph-name="archive"
      unicode="&#xF187;"
      horiz-adv-x="512" d=" M464 416H48C21.533 416 0 394.467 0 368V336C0 313.895 15.024 295.243 35.393 289.692A47.726 47.726 0 0 1 32 272V16C32 -10.467 53.533 -32 80 -32H432C458.467 -32 480 -10.467 480 16V272A47.726 47.726 0 0 1 476.607 289.692C496.976 295.243 512 313.895 512 336V368C512 394.467 490.467 416 464 416zM448 16C448 7.163 440.836 0 432 0H80C71.163 0 64 7.163 64 16V272C64 280.837 71.163 288 80 288H432C440.836 288 448 280.837 448 272V16zM480 336C480 327.163 472.837 320 464 320H48C39.163 320 32 327.163 32 336V368C32 376.837 39.163 384 48 384H464C472.837 384 480 376.837 480 368V336zM308 192H204C197.373 192 192 197.373 192 204V212C192 218.627 197.373 224 204 224H308C314.627 224 320 218.627 320 212V204C320 197.373 314.627 192 308 192z" />
    <glyph glyph-name="arrow-alt-circle-down"
      unicode="&#xF358;"
      horiz-adv-x="512" d=" M256 440C119 440 8 329 8 192S119 -56 256 -56S504 55 504 192S393 440 256 440zM472 192C472 73.3 375.9 -24 256 -24C137.3 -24 40 72.1 40 192C40 310.7 136.1 408 256 408C374.7 408 472 311.9 472 192zM384 224H320V328C320 341.2 309.2 352 296 352H216C202.8 352 192 341.2 192 328V224H128C99.6 224 85.2 189.5 105.4 169.4L233.4 41.4C245.9 28.9 266.2 28.9 278.7 41.4L406.7 169.4C426.7 189.5 412.5 224 384 224zM256 64L128 192H224V320H288V192H384L256 64z" />
    <glyph glyph-name="arrow-alt-circle-left"
      unicode="&#xF359;"
      horiz-adv-x="512" d=" M504 192C504 329 393 440 256 440S8 329 8 192S119 -56 256 -56S504 55 504 192zM256 -24C137.3 -24 40 72.1 40 192C40 310.7 136.1 408 256 408C374.7 408 472 311.9 472 192C472 73.3 375.9 -24 256 -24zM288 64V128H392C405.2 128 416 138.8 416 152V232C416 245.2 405.2 256 392 256H288V320C288 348.4 253.5 362.8 233.4 342.6L105.4 214.6C92.9 202.1 92.9 181.8 105.4 169.3L233.4 41.3C253.5 21.3 288 35.5 288 64zM128 192L256 320V224H384V160H256V64L128 192z" />
    <glyph glyph-name="arrow-alt-circle-right"
      unicode="&#xF35A;"
      horiz-adv-x="512" d=" M8 192C8 55 119 -56 256 -56S504 55 504 192S393 440 256 440S8 329 8 192zM256 408C374.7 408 472 311.9 472 192C472 73.3 375.9 -24 256 -24C137.3 -24 40 72.1 40 192C40 310.7 136.1 408 256 408zM224 320V256H120C106.8 256 96 245.2 96 232V152C96 138.8 106.8 128 120 128H224V64C224 35.6 258.5 21.2 278.6 41.4L406.6 169.4C419.1 181.9 419.1 202.2 406.6 214.7L278.6 342.7C258.5 362.7 224 348.5 224 320zM384 192L256 64V160H128V224H256V320L384 192z" />
    <glyph glyph-name="arrow-alt-circle-up"
      unicode="&#xF35B;"
      horiz-adv-x="512" d=" M256 -56C393 -56 504 55 504 192S393 440 256 440S8 329 8 192S119 -56 256 -56zM40 192C40 310.7 136.1 408 256 408C374.7 408 472 311.9 472 192C472 73.3 375.9 -24 256 -24C137.3 -24 40 72.1 40 192zM128 160H192V56C192 42.8 202.8 32 216 32H296C309.2 32 320 42.8 320 56V160H384C412.4 160 426.8 194.5 406.6 214.6L278.6 342.6C266.1 355.1 245.8 355.1 233.3 342.6L105.3 214.6C85.3 194.5 99.5 160 128 160zM256 320L384 192H288V64H224V192H128L256 320z" />
    <glyph glyph-name="arrow-alt-down"
      unicode="&#xF354;"
      horiz-adv-x="448" d=" M267.427 384C278.789 384 288 374.789 288 363.428V191.991H404.979C412.104 191.991 415.674 183.379 410.639 178.338L238.556 6.035C230.52 -2.011 217.48 -2.012 209.444 6.035L37.36 178.338C32.325 183.379 35.896 191.9910000000001 43.02 191.9910000000001H160V363.428C160 374.789 169.211 384 180.573 384H267.427M267.427 416H180.572C151.584 416 128 392.416 128 363.428V223.991H43.021C7.514 223.991 -10.476 180.951 14.719 155.725L186.802 -16.578C207.352 -37.1540000000001 240.644 -37.158 261.198 -16.578L433.281 155.725C458.372 180.847 440.632 223.991 404.979 223.991H320V363.428C320 392.416 296.416 416 267.427 416z" />
    <glyph glyph-name="arrow-alt-from-bottom"
      unicode="&#xF346;"
      horiz-adv-x="384" d=" M372 -32H12C5.4 -32 0 -26.6 0 -20V-12C0 -5.4 5.4 0 12 0H372C378.6 0 384 -5.4 384 -12V-20C384 -26.6 378.6 -32 372 -32zM153.1 64H230.8C239.6 64 246.8 71.2 246.8 80V224H340.7000000000001C347.8000000000001 224 351.4000000000001 232.6 346.4000000000001 237.6L203.3 381.2C197 387.5 186.9 387.5 180.6 381.2L37.6 237.6C32.6 232.6 36.1 224 43.3 224H137.2000000000001V80C137.1000000000001 71.2 144.3000000000001 64 153.1000000000001 64M153.1000000000001 32C126.6000000000001 32 105.1000000000001 53.5 105.1000000000001 80V192H43.3C7.7 192 -10.1 235.1 15 260.2L158 403.8C176.8 422.6 207.2 422.6 226 403.8L369.1 260.3C394.3 235.1 376.3 192.1 340.8 192.1H278.9000000000001V80.1C278.9000000000001 53.6 257.4000000000001 32.1 230.9000000000001 32.1H153.1V32z" />
    <glyph glyph-name="arrow-alt-from-left"
      unicode="&#xF347;"
      horiz-adv-x="448" d=" M0 12V372C0 378.6 5.4 384 12 384H20C26.6 384 32 378.6 32 372V12C32 5.4 26.6 0 20 0H12C5.4 0 0 5.4 0 12zM96 230.9V153.2C96 144.4 103.2 137.2 112 137.2H256V43.3C256 36.1999999999999 264.6 32.6 269.6 37.6L411.2000000000001 180.6999999999999C417.5000000000001 187 417.5000000000001 197.0999999999999 411.2000000000001 203.3999999999999L269.6 346.3999999999999C264.6 351.3999999999999 256 347.8999999999999 256 340.7V246.7999999999999H112C103.2 246.8999999999999 96 239.6999999999999 96 230.8999999999999M64 230.8999999999999C64 257.3999999999999 85.5 278.8999999999999 112 278.8999999999999H224V340.7999999999999C224 376.3999999999999 267.1 394.1999999999999 292.2 369.0999999999999L433.9 226C452.7 207.2 452.7 176.8 433.9 158L292.2 14.9C267 -10.3 224 7.7 224 43.2V105.1H112C85.5 105.1 64 126.6 64 153.1V230.9z" />
    <glyph glyph-name="arrow-alt-from-right"
      unicode="&#xF348;"
      horiz-adv-x="448" d=" M448 372V12C448 5.4 442.6 0 436 0H428C421.4 0 416 5.4 416 12V372C416 378.6 421.4 384 428 384H436C442.6 384 448 378.6 448 372zM352 153.1V230.8C352 239.6 344.8 246.8 336 246.8H192V340.7000000000001C192 347.8 183.4 351.4000000000001 178.4 346.4000000000001L36.7 203.3C30.4 197 30.4 186.9 36.7 180.6L178.3 37.5C183.3 32.5 191.9 36 191.9 43.2V137.1H335.9C344.8 137.1 352 144.3 352 153.1M384 153.1C384 126.6 362.5 105.1 336 105.1H224V43.2C224 7.6 180.9 -10.1999999999999 155.8 14.9L14.1 158C-4.7 176.8 -4.7 207.2 14.1 226L155.8 369.1C181 394.2 224 376.2 224 340.7V278.8H336C362.5 278.8 384 257.3 384 230.8V153.1z" />
    <glyph glyph-name="arrow-alt-from-top"
      unicode="&#xF349;"
      horiz-adv-x="384" d=" M12 416H372C378.6 416 384 410.6 384 404V396C384 389.4 378.6 384 372 384H12C5.4 384 0 389.4 0 396V404C0 410.6 5.4 416 12 416zM230.9 320H153.2C144.4 320 137.2 312.8 137.2 304V160H43.3C36.2 160 32.6 151.4 37.6 146.4L180.7 2.9C187 -3.4 197.1 -3.4 203.4 2.9L346.5 146.4C351.5 151.4 348 160 340.8 160H246.9V304C246.9 312.8 239.7 320 230.9 320M230.9 352C257.4 352 278.9 330.5 278.9 304V192H340.8C376.4 192 394.2 148.9 369.1 123.8L226 -19.8C207.2 -38.6 176.8 -38.6 158 -19.8L14.9 123.8C-10.2 149 7.8 192 43.3 192H105.2V304C105.2 330.5 126.7 352 153.2 352H230.9z" />
    <glyph glyph-name="arrow-alt-left"
      unicode="&#xF355;"
      horiz-adv-x="448.012" d=" M416.012 148.573C416.012 137.211 406.801 128 395.44 128H224.002V11.021C224.002 3.896 215.39 0.326 210.349 5.361L38.047 177.444C30.001 185.48 30 198.52 38.047 206.556L210.349 378.64C215.39 383.675 224.002 380.104 224.002 372.98V256H395.439C406.801 256 416.011 246.789 416.011 235.427V148.573M448.012 148.573V235.428C448.012 264.4170000000001 424.428 288.001 395.44 288.001H256.002V372.979C256.002 408.486 212.962 426.476 187.736 401.281L15.433 229.198C-5.143 208.648 -5.147 175.356 15.433 154.802L187.736 -17.2809999999999C212.858 -42.372 256.002 -24.6319999999999 256.002 11.0210000000001V96H395.439C424.428 96 448.012 119.584 448.012 148.573z" />
    <glyph glyph-name="arrow-alt-right"
      unicode="&#xF356;"
      horiz-adv-x="448.012" d=" M32 235.427C32 246.789 41.211 256 52.572 256H224.009V372.979C224.009 380.104 232.621 383.674 237.662 378.639L409.9650000000001 206.556C418.011 198.52 418.0120000000001 185.48 409.9650000000001 177.444L237.662 5.36C232.621 0.325 224.009 3.896 224.009 11.02V128H52.572C41.211 128 32 137.211 32 148.573V235.427M0 235.427V148.572C0 119.584 23.584 96 52.572 96H192.009V11.021C192.009 -24.486 235.049 -42.476 260.2750000000001 -17.281L432.5780000000001 154.802C453.1540000000001 175.352 453.158 208.644 432.5780000000001 229.1980000000001L260.276 401.281C235.154 426.372 192.01 408.632 192.01 372.979V288H52.572C23.584 288 0 264.416 0 235.427z" />
    <glyph glyph-name="arrow-alt-square-down"
      unicode="&#xF350;"
      horiz-adv-x="448" d=" M400 416H48C21.5 416 0 394.5 0 368V16C0 -10.5 21.5 -32 48 -32H400C426.5 -32 448 -10.5 448 16V368C448 394.5 426.5 416 400 416zM416 16C416 7.2 408.8 0 400 0H48C39.2 0 32 7.2 32 16V368C32 376.8 39.2 384 48 384H400C408.8 384 416 376.8 416 368V16zM352 224H288V328C288 341.2 277.2 352 264 352H184C170.8 352 160 341.2 160 328V224H96C67.6 224 53.2 189.5 73.4 169.4L201.4 41.4C213.9 28.9 234.2 28.9 246.7 41.4L374.7 169.4C394.7 189.5 380.5 224 352 224zM224 64L96 192H192V320H256V192H352L224 64z" />
    <glyph glyph-name="arrow-alt-square-left"
      unicode="&#xF351;"
      horiz-adv-x="448" d=" M448 16V368C448 394.5 426.5 416 400 416H48C21.5 416 0 394.5 0 368V16C0 -10.5 21.5 -32 48 -32H400C426.5 -32 448 -10.5 448 16zM48 0C39.2 0 32 7.2 32 16V368C32 376.8 39.2 384 48 384H400C408.8 384 416 376.8 416 368V16C416 7.2 408.8 0 400 0H48zM256 64V128H360C373.2 128 384 138.8 384 152V232C384 245.2 373.2 256 360 256H256V320C256 348.4 221.5 362.8 201.4 342.6L73.4 214.6C60.9 202.1 60.9 181.8 73.4 169.3L201.4 41.3C221.5 21.3 256 35.5 256 64zM96 192L224 320V224H352V160H224V64L96 192z" />
    <glyph glyph-name="arrow-alt-square-right"
      unicode="&#xF352;"
      horiz-adv-x="448" d=" M0 368V16C0 -10.5 21.5 -32 48 -32H400C426.5 -32 448 -10.5 448 16V368C448 394.5 426.5 416 400 416H48C21.5 416 0 394.5 0 368zM400 384C408.8 384 416 376.8 416 368V16C416 7.2 408.8 0 400 0H48C39.2 0 32 7.2 32 16V368C32 376.8 39.2 384 48 384H400zM192 320V256H88C74.8 256 64 245.2 64 232V152C64 138.8 74.8 128 88 128H192V64C192 35.6 226.5 21.2 246.6 41.4L374.6 169.4C387.1 181.9 387.1 202.2 374.6 214.7L246.6 342.7C226.5000000000001 362.7 192 348.5 192 320zM352 192L224 64V160H96V224H224V320L352 192z" />
    <glyph glyph-name="arrow-alt-square-up"
      unicode="&#xF353;"
      horiz-adv-x="448" d=" M48 -32H400C426.5 -32 448 -10.5 448 16V368C448 394.5 426.5 416 400 416H48C21.5 416 0 394.5 0 368V16C0 -10.5 21.5 -32 48 -32zM32 368C32 376.8 39.2 384 48 384H400C408.8 384 416 376.8 416 368V16C416 7.2 408.8 0 400 0H48C39.2 0 32 7.2 32 16V368zM96 160H160V56C160 42.8 170.8 32 184 32H264C277.2 32 288 42.8 288 56V160H352C380.4 160 394.8 194.5 374.6 214.6L246.6 342.6C234.1 355.1 213.8 355.1 201.3 342.6L73.3 214.6C53.3 194.5 67.5 160 96 160zM224 320L352 192H256V64H192V192H96L224 320z" />
    <glyph glyph-name="arrow-alt-to-bottom"
      unicode="&#xF34A;"
      horiz-adv-x="384" d=" M230.9 384C239.7 384 246.9 376.8 246.9 368V224H340.8C347.9000000000001 224 351.5 215.4 346.5 210.4L203.3 66.8C197 60.5 186.9 60.5 180.6 66.8L37.6 210.4C32.6 215.4 36.1 224 43.3 224H137.2000000000001V368C137.2000000000001 376.8 144.4 384 153.2000000000001 384H230.9000000000001M230.9000000000001 416H153.2000000000001C126.7000000000001 416 105.2000000000001 394.5 105.2000000000001 368V256H43.3C7.8 256 -10.2 213 15 187.8L158 44.2C176.8 25.4 207.2 25.4 226 44.2L369.1 187.7000000000001C394.2000000000001 212.8000000000001 376.4000000000001 255.9000000000001 340.8 255.9000000000001H278.9000000000001V368C278.9000000000001 394.5 257.3 416 230.9000000000001 416zM384 -20V-12C384 -5.4 378.6 0 372 0H12C5.4 0 0 -5.4 0 -12V-20C0 -26.6 5.4 -32 12 -32H372C378.6 -32 384 -26.6 384 -20z" />
    <glyph glyph-name="arrow-alt-to-left"
      unicode="&#xF34B;"
      horiz-adv-x="448" d=" M416 153.1C416 144.3 408.8 137.1 400 137.1H256V43.2C256 36.1 247.4 32.5000000000001 242.4 37.5000000000001L98.8 180.7C92.5 187 92.5 197.1 98.8 203.4L242.3 346.5C247.3 351.5 255.9 348 255.9 340.8V246.9H399.9C408.7 246.9 415.9 239.7 415.9 230.9V153.1M448 153.1V230.8C448 257.3 426.5 278.8 400 278.8H288V340.7C288 376.2 245 394.2 219.8 369L76.2 226C57.4 207.2 57.4 176.8 76.2 158L219.7 14.9C244.8 -10.2 287.9 7.6 287.9 43.2V105.1H399.9C426.5 105.1 448 126.7 448 153.1zM12 0H20C26.6 0 32 5.4 32 12V372C32 378.6 26.6 384 20 384H12C5.4 384 0 378.6 0 372V12C0 5.4 5.4 0 12 0z" />
    <glyph glyph-name="arrow-alt-to-right"
      unicode="&#xF34C;"
      horiz-adv-x="448" d=" M32 230.9C32 239.7 39.2 246.9 48 246.9H192V340.8C192 347.9 200.6 351.5 205.6 346.5L349.1 203.4C355.4000000000001 197.1 355.4000000000001 187.0000000000001 349.1 180.7000000000001L205.6 37.6C200.6 32.6 192 36.1 192 43.3V137.2000000000001H48C39.2 137.2000000000001 32 144.4 32 153.2000000000001V230.9000000000001M0 230.9000000000001V153.2000000000001C0 126.7000000000001 21.5 105.2000000000001 48 105.2000000000001H160V43.3000000000001C160 7.8000000000001 203 -10.1999999999999 228.2 15.0000000000001L371.8 158.0000000000001C390.6 176.8000000000001 390.6 207.2000000000001 371.8 226.0000000000001L228.2 369.1C203.1 394.2 160 376.4 160 340.8V278.9H48C21.5 278.9 0 257.3 0 230.9zM436 384H428C421.4 384 416 378.6 416 372V12C416 5.4 421.4 0 428 0H436C442.6 0 448 5.4 448 12V372C448 378.6 442.6 384 436 384z" />
    <glyph glyph-name="arrow-alt-to-top"
      unicode="&#xF34D;"
      horiz-adv-x="384" d=" M153.1 0C144.3 0 137.1 7.2 137.1 16V160H43.3C36.2 160 32.6 168.6 37.6 173.6L180.7 317.1C187 323.4000000000001 197.1 323.4000000000001 203.4 317.1L346.5 173.6C351.5 168.6 348 160 340.8 160H246.9V16C246.9 7.2 239.7 0 230.9 0H153.1M153.1 -32H230.8C257.3 -32 278.8 -10.5 278.8 16V128H340.7C376.2 128 394.2 171 369 196.2L226 339.8C207.2 358.6 176.8 358.6 158 339.8L14.9 196.2C-10.1 171.1 7.6 128 43.3 128H105.2V16C105.1 -10.5 126.7 -32 153.1 -32zM0 404V396C0 389.4 5.4 384 12 384H372C378.6 384 384 389.4 384 396V404C384 410.6 378.6 416 372 416H12C5.4 416 0 410.6 0 404z" />
    <glyph glyph-name="arrow-alt-up"
      unicode="&#xF357;"
      horiz-adv-x="448" d=" M180.573 0C169.211 0 160 9.211 160 20.572V192.009H43.021C35.896 192.009 32.326 200.621 37.361 205.662L209.444 377.9650000000001C217.48 386.011 230.52 386.012 238.556 377.9650000000001L410.64 205.662C415.675 200.621 412.104 192.009 404.98 192.009H288V20.572C288 9.21 278.789 0 267.427 0H180.573M180.573 -32H267.4280000000001C296.416 -32 320 -8.416 320 20.572V160.009H404.979C440.486 160.009 458.476 203.049 433.281 228.2750000000001L261.198 400.578C240.648 421.154 207.356 421.158 186.802 400.578L14.719 228.276C-10.372 203.154 7.368 160.01 43.021 160.01H128V20.573C128 -8.416 151.584 -32 180.573 -32z" />
    <glyph glyph-name="arrow-circle-down"
      unicode="&#xF0AB;"
      horiz-adv-x="512" d=" M256 440C119 440 8 329 8 192S119 -56 256 -56S504 55 504 192S393 440 256 440zM472 192C472 73.3 375.9 -24 256 -24C137.3 -24 40 72.1 40 192C40 310.7 136.1 408 256 408C374.7 408 472 311.9 472 192zM379.5 196.5L372.6 203.4C367.9000000000001 208.1 360.1 208.1 355.5 203.2L273 117.7V308C273 314.6 267.6 320 261 320H251C244.4 320 239 314.6 239 308V117.7L156.5 203.3C151.8 208.1 144.1 208.2 139.4 203.5L132.5 196.6C127.8 191.9 127.8 184.3 132.5 179.6L247.5 64.5C252.2 59.8 259.8 59.8 264.5 64.5L379.5 179.6C384.2 184.2000000000001 384.2 191.8 379.5 196.5z" />
    <glyph glyph-name="arrow-circle-left"
      unicode="&#xF0A8;"
      horiz-adv-x="512" d=" M504 192C504 329 393 440 256 440S8 329 8 192S119 -56 256 -56S504 55 504 192zM256 -24C137.3 -24 40 72.1 40 192C40 310.7 136.1 408 256 408C374.7 408 472 311.9 472 192C472 73.3 375.9 -24 256 -24zM243.5 68.5L128.4 183.5C123.7 188.2 123.7 195.8 128.4 200.5L243.5 315.5C248.2 320.2 255.8 320.2 260.5 315.5L267.4 308.6C272.1 303.9 272.1 296.1 267.2 291.5L181.7 209H372C378.6 209 384 203.6 384 197V187C384 180.4 378.6 175 372 175H181.7L267.3 92.5C272.1 87.8 272.2 80.1 267.5 75.4L260.6 68.5C255.8 63.8 248.2 63.8 243.5 68.5z" />
    <glyph glyph-name="arrow-circle-right"
      unicode="&#xF0A9;"
      horiz-adv-x="512" d=" M8 192C8 55 119 -56 256 -56S504 55 504 192S393 440 256 440S8 329 8 192zM256 408C374.7 408 472 311.9 472 192C472 73.3 375.9 -24 256 -24C137.3 -24 40 72.1 40 192C40 310.7 136.1 408 256 408zM268.5 315.5L383.6 200.5C388.3 195.8 388.3 188.2 383.6 183.5L268.5 68.5C263.8 63.8 256.2 63.8 251.5 68.5L244.6 75.4C239.9 80.1 239.9 87.9 244.8 92.5L330.4 175H140C133.4 175 128 180.4 128 187V197C128 203.6 133.4 209 140 209H330.3L244.7 291.5C239.9 296.2 239.8 303.9 244.5000000000001 308.6L251.4000000000001 315.5C256.2000000000001 320.2 263.8 320.2 268.5000000000001 315.5z" />
    <glyph glyph-name="arrow-circle-up"
      unicode="&#xF0AA;"
      horiz-adv-x="512" d=" M256 -56C393 -56 504 55 504 192S393 440 256 440S8 329 8 192S119 -56 256 -56zM40 192C40 310.7 136.1 408 256 408C374.7 408 472 311.9 472 192C472 73.3 375.9 -24 256 -24C137.3 -24 40 72.1 40 192zM132.5 204.5L247.5 319.6C252.2 324.3 259.8 324.3 264.5 319.6L379.5 204.5C384.2 199.8 384.2 192.2 379.5 187.5L372.6 180.6C367.9000000000001 175.9 360.1 175.9 355.5 180.8L273 266.3V76C273 69.4 267.6 64 261 64H251C244.4 64 239 69.4 239 76V266.3L156.5 180.7000000000001C151.8 175.9 144.1 175.8000000000001 139.4 180.5000000000001L132.5 187.4C127.8 192.2000000000001 127.8 199.8000000000001 132.5 204.5z" />
    <glyph glyph-name="arrow-down"
      unicode="&#xF063;"
      horiz-adv-x="448" d=" M443.5 199.5L436.4 206.6C431.7 211.3 424.1 211.3 419.4 206.6L241 28.1V404C241 410.6 235.6 416 229 416H219C212.4 416 207 410.6 207 404V28.1L28.5 206.6C23.8 211.3 16.2 211.3 11.5 206.6L4.4 199.5C-0.3 194.8 -0.3 187.2 4.4 182.5L215.4 -28.6C220.1 -33.3 227.7 -33.3 232.4 -28.6L443.4 182.5C448.2 187.3 448.2 194.8 443.5 199.5z" />
    <glyph glyph-name="arrow-from-bottom"
      unicode="&#xF342;"
      horiz-adv-x="384" d=" M35.5 264L183.5 412.5C188.2 417.2 195.8 417.2 200.5 412.5L348.5 264C353.2 259.3 353.2 251.7 348.5 247L341.4 239.9C336.7 235.2 329.1 235.2 324.4 239.9L209 355.9V44C209 37.4 203.6 32 197 32H187C180.4 32 175 37.4 175 44V355.9L59.6 240C54.9 235.3 47.3 235.3 42.6 240L35.5 247.1C30.8 251.7 30.8 259.3 35.5 264zM384 -20V-12C384 -5.4 378.6 0 372 0H12C5.4 0 0 -5.4 0 -12V-20C0 -26.6 5.4 -32 12 -32H372C378.6 -32 384 -26.6 384 -20z" />
    <glyph glyph-name="arrow-from-left"
      unicode="&#xF343;"
      horiz-adv-x="448" d=" M296 348.5L444.5 200.5C449.2 195.8 449.2 188.2 444.5 183.5L296 35.5C291.3 30.8 283.7 30.8 279 35.5L271.9 42.6C267.2 47.3 267.2 54.9 271.9 59.6L387.9 175H76C69.4 175 64 180.4 64 187V197C64 203.6 69.4 209 76 209H387.9L272 324.4C267.3 329.1 267.3 336.7 272 341.4L279.1 348.5C283.7000000000001 353.2 291.3 353.2 296 348.5zM12 0H20C26.6 0 32 5.4 32 12V372C32 378.6 26.6 384 20 384H12C5.4 384 0 378.6 0 372V12C0 5.4 5.4 0 12 0z" />
    <glyph glyph-name="arrow-from-right"
      unicode="&#xF344;"
      horiz-adv-x="448" d=" M152 35.5L3.5 183.5C-1.2 188.2 -1.2 195.8 3.5 200.5L152 348.5C156.7 353.2 164.3 353.2 169 348.5L176.1 341.4C180.8 336.7 180.8 329.1 176.1 324.4L60.1 209H372C378.6 209 384 203.6 384 197V187C384 180.4 378.6 175 372 175H60.1L176 59.6C180.7 54.9 180.7 47.3 176 42.6L168.9 35.5C164.3 30.8 156.7 30.8 152 35.5zM436 384H428C421.4 384 416 378.6 416 372V12C416 5.4 421.4 0 428 0H436C442.6 0 448 5.4 448 12V372C448 378.6 442.6 384 436 384z" />
    <glyph glyph-name="arrow-from-top"
      unicode="&#xF345;"
      horiz-adv-x="384" d=" M348.5 120L200.5 -28.5C195.8 -33.2 188.2 -33.2 183.5 -28.5L35.5 120C30.8 124.7 30.8 132.3 35.5 137L42.6 144.1C47.3 148.8 54.9 148.8 59.6 144.1L175 28.1V340C175 346.6 180.4 352 187 352H197C203.6 352 209 346.6 209 340V28.1L324.4 144C329.1 148.7 336.7 148.7 341.4 144L348.5 136.9C353.2 132.3 353.2 124.7 348.5 120zM0 404V396C0 389.4 5.4 384 12 384H372C378.6 384 384 389.4 384 396V404C384 410.6 378.6 416 372 416H12C5.4 416 0 410.6 0 404z" />
    <glyph glyph-name="arrow-left"
      unicode="&#xF060;"
      horiz-adv-x="448" d=" M231.536 -27.535L238.607 -20.465C243.293 -15.7790000000001 243.293 -8.181 238.607 -3.494L60.113 175H436C442.627 175 448 180.373 448 187V197C448 203.627 442.627 209 436 209H60.113L238.607 387.4940000000001C243.293 392.18 243.293 399.778 238.607 404.4650000000001L231.536 411.5350000000001C226.85 416.221 219.252 416.221 214.566 411.5350000000001L3.515 200.485C-1.171 195.799 -1.171 188.201 3.515 183.514L214.566 -27.536C219.252 -32.222 226.85 -32.222 231.536 -27.535z" />
    <glyph glyph-name="arrow-right"
      unicode="&#xF061;"
      horiz-adv-x="448" d=" M216.464 411.535L209.393 404.465C204.707 399.779 204.707 392.181 209.393 387.4940000000001L387.887 209H12C5.373 209 0 203.627 0 197V187C0 180.373 5.373 175 12 175H387.887L209.393 -3.494C204.707 -8.18 204.707 -15.778 209.393 -20.465L216.464 -27.535C221.15 -32.221 228.748 -32.221 233.434 -27.535L444.485 183.515C449.171 188.201 449.171 195.799 444.485 200.486L233.434 411.535C228.748 416.222 221.15 416.222 216.464 411.535z" />
    <glyph glyph-name="arrow-square-down"
      unicode="&#xF339;"
      horiz-adv-x="448" d=" M347.5 179.5L232.5 64.4C227.8 59.7 220.2 59.7 215.5 64.4L100.5 179.5C95.8 184.2 95.8 191.8 100.5 196.5L107.4 203.4C112.1 208.1 119.9 208.1 124.5 203.2L207 117.6V308C207 314.6 212.4 320 219 320H229C235.6 320 241 314.6 241 308V117.7L323.5 203.3C328.2 208.1 335.9 208.2 340.6 203.5L347.5 196.6C352.2 191.8 352.2 184.2 347.5 179.5zM448 368V16C448 -10.5 426.5 -32 400 -32H48C21.5 -32 0 -10.5 0 16V368C0 394.5 21.5 416 48 416H400C426.5 416 448 394.5 448 368zM416 368C416 376.8 408.8 384 400 384H48C39.2 384 32 376.8 32 368V16C32 7.2 39.2 0 48 0H400C408.8 0 416 7.2 416 16V368z" />
    <glyph glyph-name="arrow-square-left"
      unicode="&#xF33A;"
      horiz-adv-x="448" d=" M211.5 68.5L96.4 183.5C91.7 188.2 91.7 195.8 96.4 200.5L211.5 315.5C216.2 320.2 223.8 320.2 228.5 315.5L235.4 308.6C240.1 303.9 240.1 296.1 235.2 291.5L149.7 209H340C346.6 209 352 203.6 352 197V187C352 180.4 346.6 175 340 175H149.7L235.3 92.5C240.1 87.8 240.2 80.1 235.5 75.4L228.6 68.5C223.8 63.8 216.2 63.8 211.5 68.5zM400 -32H48C21.5 -32 0 -10.5 0 16V368C0 394.5 21.5 416 48 416H400C426.5 416 448 394.5 448 368V16C448 -10.5 426.5 -32 400 -32zM400 0C408.8 0 416 7.2 416 16V368C416 376.8 408.8 384 400 384H48C39.2 384 32 376.8 32 368V16C32 7.2 39.2 0 48 0H400z" />
    <glyph glyph-name="arrow-square-right"
      unicode="&#xF33B;"
      horiz-adv-x="448" d=" M236.5 315.5L351.6 200.5C356.3 195.8 356.3 188.2 351.6 183.5L236.5000000000001 68.5C231.8000000000001 63.8 224.2 63.8 219.5 68.5L212.6 75.4C207.9 80.1 207.9 87.9 212.8 92.5L298.4 175H108C101.4 175 96 180.4 96 187V197C96 203.6 101.4 209 108 209H298.3L212.7 291.5C207.9 296.2 207.8 303.9 212.5 308.6L219.4 315.5C224.2000000000001 320.2 231.8000000000001 320.2 236.5000000000001 315.5zM48 416H400C426.5 416 448 394.5 448 368V16C448 -10.5 426.5 -32 400 -32H48C21.5 -32 0 -10.5 0 16V368C0 394.5 21.5 416 48 416zM48 384C39.2 384 32 376.8 32 368V16C32 7.2 39.2 0 48 0H400C408.8 0 416 7.2 416 16V368C416 376.8 408.8 384 400 384H48z" />
    <glyph glyph-name="arrow-square-up"
      unicode="&#xF33C;"
      horiz-adv-x="448" d=" M100.5 204.5L215.5 319.6C220.2 324.3 227.8 324.3 232.5 319.6L347.5 204.5C352.2 199.8 352.2 192.2 347.5 187.5L340.6 180.6C335.9000000000001 175.9 328.1 175.9 323.5 180.8L241 266.3V76C241 69.4 235.6 64 229 64H219C212.4 64 207 69.4 207 76V266.3L124.5 180.7000000000001C119.8 175.9 112.1 175.8000000000001 107.4 180.5000000000001L100.5 187.4C95.8 192.2000000000001 95.8 199.8000000000001 100.5 204.5zM0 16V368C0 394.5 21.5 416 48 416H400C426.5 416 448 394.5 448 368V16C448 -10.5 426.5 -32 400 -32H48C21.5 -32 0 -10.5 0 16zM32 16C32 7.2 39.2 0 48 0H400C408.8 0 416 7.2 416 16V368C416 376.8 408.8 384 400 384H48C39.2 384 32 376.8 32 368V16z" />
    <glyph glyph-name="arrow-to-bottom"
      unicode="&#xF33D;"
      horiz-adv-x="384" d=" M348.5 184L200.5 35.5C195.8 30.8 188.2 30.8 183.5 35.5L35.5 184C30.8 188.7 30.8 196.3 35.5 201L42.6 208.1C47.3 212.8 54.9 212.8 59.6 208.1L175 92.1V404C175 410.6 180.4 416 187 416H197C203.6 416 209 410.6 209 404V92.1L324.4 208C329.1 212.7 336.7 212.7 341.4 208L348.5 200.9C353.2 196.3 353.2 188.7 348.5 184zM384 -20V-12C384 -5.4 378.6 0 372 0H12C5.4 0 0 -5.4 0 -12V-20C0 -26.6 5.4 -32 12 -32H372C378.6 -32 384 -26.6 384 -20z" />
    <glyph glyph-name="arrow-to-left"
      unicode="&#xF33E;"
      horiz-adv-x="448" d=" M216 35.5L67.5 183.5C62.8 188.2 62.8 195.8 67.5 200.5L216 348.5C220.7 353.2 228.3 353.2 233 348.5L240.1 341.4C244.8 336.7 244.8 329.1 240.1 324.4L124.1 209H436C442.6 209 448 203.6 448 197V187C448 180.4 442.6 175 436 175H124.1L240 59.6C244.7 54.9 244.7 47.3 240 42.6L232.9 35.5C228.3 30.8 220.7 30.8 216 35.5zM12 0H20C26.6 0 32 5.4 32 12V372C32 378.6 26.6 384 20 384H12C5.4 384 0 378.6 0 372V12C0 5.4 5.4 0 12 0z" />
    <glyph glyph-name="arrow-to-right"
      unicode="&#xF340;"
      horiz-adv-x="448" d=" M215 348.5L207.9 341.4C203.2 336.7 203.2 329.1 207.9 324.4L323.9 209H12C5.4 209 0 203.6 0 197V187C0 180.4 5.4 175 12 175H323.9L208 59.6C203.3 54.9 203.3 47.3 208 42.6L215.1 35.5C219.8 30.8 227.4 30.8 232.1 35.5L380.6 183.5C385.3 188.2 385.3 195.8 380.6 200.5L232 348.5C227.3 353.2 219.7 353.2 215 348.5zM448 372V12C448 5.4 442.6 0 436 0H428C421.4 0 416 5.4 416 12V372C416 378.6 421.4 384 428 384H436C442.6 384 448 378.6 448 372z" />
    <glyph glyph-name="arrow-to-top"
      unicode="&#xF341;"
      horiz-adv-x="384" d=" M35.5 200L183.5 348.5C188.2 353.2 195.8 353.2 200.5 348.5L348.5 200C353.2 195.3 353.2 187.7 348.5 183L341.4 175.9C336.7 171.2 329.1 171.2 324.4 175.9L209 291.9V-20C209 -26.6 203.6 -32 197 -32H187C180.4 -32 175 -26.6 175 -20V291.9L59.6 176C54.9 171.3 47.3 171.3 42.6 176L35.5 183.1C30.8 187.7000000000001 30.8 195.3 35.5 200zM0 404V396C0 389.4 5.4 384 12 384H372C378.6 384 384 389.4 384 396V404C384 410.6 378.6 416 372 416H12C5.4 416 0 410.6 0 404z" />
    <glyph glyph-name="arrow-up"
      unicode="&#xF062;"
      horiz-adv-x="448" d=" M4.465 184.464L11.535 177.393C16.221 172.707 23.819 172.707 28.506 177.393L207 355.887V-20C207 -26.627 212.373 -32 219 -32H229C235.627 -32 241 -26.627 241 -20V355.887L419.4940000000001 177.394C424.18 172.708 431.778 172.708 436.4650000000001 177.394L443.5350000000001 184.465C448.221 189.151 448.221 196.749 443.5350000000001 201.435L232.485 412.485C227.799 417.1710000000001 220.201 417.1710000000001 215.514 412.485L4.465 201.434C-0.222 196.748 -0.222 189.15 4.465 184.464z" />
    <glyph glyph-name="arrows-alt-h"
      unicode="&#xF337;"
      horiz-adv-x="512" d=" M384 255.968V209H128V255.962C128 284.387 93.512 298.729 73.373 278.589L9.373 214.627C-3.123 202.131 -3.125 181.87 9.373 169.372L73.373 105.404C93.472 85.305 128 99.55 128 128.032V175H384V128.038C384 99.613 418.487 85.271 438.627 105.411L502.627 169.373C515.123 181.869 515.125 202.13 502.627 214.628L438.627 278.596C418.528 298.695 384 284.45 384 255.968zM100 128.032C100 124.484 95.704 122.671 93.167 125.209L29.172 189.172A3.9950000000000006 3.9950000000000006 0 0 0 29.166 194.823L93.172 258.7910000000001C95.705 261.3230000000001 100.001 259.5150000000001 100.001 255.9630000000001V128.0320000000001zM418.8330000000001 258.792L482.828 194.829A3.9950000000000006 3.9950000000000006 0 0 0 482.834 189.178L418.828 125.21C416.296 122.678 411.999 124.485 411.999 128.038V255.968C412 259.516 416.296 261.329 418.833 258.792z" />
    <glyph glyph-name="arrows-alt-v"
      unicode="&#xF338;"
      horiz-adv-x="192" d=" M159.968 64H113V320H159.962C188.387 320 202.729 354.488 182.589 374.627L118.627 438.627C106.131 451.123 85.87 451.125 73.372 438.627L9.404 374.627C-10.695 354.528 3.55 320 32.032 320H79V64H32.038C3.613 64 -10.729 29.513 9.411 9.373L73.373 -54.627C85.869 -67.123 106.13 -67.125 118.628 -54.627L182.596 9.373C202.695 29.472 188.45 64 159.968 64zM32.032 348C28.484 348 26.671 352.296 29.209 354.833L93.172 418.828A3.9950000000000006 3.9950000000000006 0 0 0 98.823 418.834L162.791 354.828C165.323 352.295 163.515 347.999 159.963 347.999H32.032zM162.792 29.167L98.829 -34.828A3.9950000000000006 3.9950000000000006 0 0 0 93.178 -34.834L29.21 29.171C26.678 31.703 28.485 36 32.038 36H159.968C163.516 36 165.329 31.704 162.792 29.167z" />
    <glyph glyph-name="arrows-alt"
      unicode="&#xF0B2;"
      horiz-adv-x="512" d=" M322.469 68.44L272 68.442V176H379.556L379.553 125.533C379.553 96.246 415.087 81.469 435.837 102.219L502.343 168.686C515.218 181.561 515.2199999999999 202.437 502.343 215.313L435.844 281.779C415.135 302.488 379.56 287.8110000000001 379.56 258.4650000000001L379.558 208H272V315.5560000000001L322.463 315.553C351.75 315.553 366.5270000000001 351.087 345.7770000000001 371.837L279.31 438.343C266.435 451.218 245.559 451.22 232.683 438.343L166.217 371.844C145.508 351.135 160.185 315.56 189.531 315.56L240 315.558V208H132.444L132.447 258.467C132.447 287.754 96.914 302.531 76.163 281.781L9.657 215.314C-3.218 202.439 -3.22 181.563 9.657 168.686L76.156 102.22C96.865 81.511 132.44 96.188 132.44 125.534L132.442 176H240V68.444L189.537 68.447C160.25 68.447 145.473 32.913 166.223 12.163L232.69 -54.343C245.565 -67.218 266.441 -67.2199999999999 279.317 -54.343L345.783 12.1560000000001C366.492 32.8650000000001 351.815 68.4400000000001 322.469 68.4400000000001zM415.45 261.375L481.943 194.915A4.117 4.117 0 0 0 481.949 189.0920000000001L415.437 122.619C412.827 120.0100000000001 408.401 121.8730000000001 408.401 125.533L408.408 258.4650000000001C408.41 262.121 412.836 263.9890000000001 415.45 261.375zM189.531 344.41C185.876 344.41 184.008 348.836 186.622 351.451L253.082 417.944A4.117 4.117 0 0 0 258.905 417.95L325.378 351.438C327.987 348.828 326.124 344.402 322.464 344.402L189.531 344.41zM96.55 122.625L30.057 189.085A4.117 4.117 0 0 0 30.051 194.908L96.563 261.381C99.173 263.99 103.599 262.127 103.599 258.467L103.592 125.535C103.59 121.879 99.164 120.011 96.55 122.625zM253.095 -33.95L186.622 32.562C184.013 35.172 185.876 39.598 189.536 39.598L322.468 39.591C326.123 39.591 327.991 35.165 325.377 32.55L258.917 -33.943A4.115 4.115 0 0 0 253.095 -33.95z" />
    <glyph glyph-name="arrows-h"
      unicode="&#xF07E;"
      horiz-adv-x="512" d=" M399.959 277.415C395.273 272.729 395.273 265.131 399.959 260.444L451.887 209H60.113L112.041 260.444C116.727 265.13 116.727 272.728 112.041 277.415L104.97 284.485C100.284 289.1710000000001 92.686 289.1710000000001 88 284.485L3.515 200.485C-1.171 195.799 -1.171 188.201 3.515 183.514L88 99.514C92.686 94.828 100.284 94.828 104.97 99.514L112.041 106.584C116.727 111.27 116.727 118.868 112.041 123.555L60.113 175H451.886L399.9580000000001 123.556C395.2720000000001 118.87 395.2720000000001 111.272 399.9580000000001 106.585L407.0290000000001 99.515C411.7150000000001 94.829 419.3130000000001 94.829 423.999 99.515L508.484 183.515C513.171 188.201 513.171 195.799 508.484 200.486L423.999 284.486C419.3130000000001 289.1720000000001 411.7150000000001 289.1720000000001 407.029 284.486L399.959 277.415z" />
    <glyph glyph-name="arrows-v"
      unicode="&#xF07D;"
      horiz-adv-x="192" d=" M181.415 48.041C176.729 52.727 169.131 52.727 164.444 48.041L113 -3.887V387.887L164.444 335.959C169.13 331.273 176.728 331.273 181.415 335.959L188.485 343.03C193.171 347.716 193.171 355.314 188.485 360L104.485 444.485C99.799 449.171 92.201 449.171 87.514 444.485L3.515 360C-1.171 355.314 -1.171 347.716 3.515 343.03L10.585 335.959C15.271 331.273 22.869 331.273 27.556 335.959L79 387.887V-3.886L27.556 48.042C22.87 52.728 15.272 52.728 10.585 48.042L3.515 40.9709999999999C-1.171 36.285 -1.171 28.687 3.515 24.001L87.515 -60.484C92.201 -65.171 99.799 -65.171 104.486 -60.484L188.486 24.001C193.172 28.687 193.172 36.285 188.486 40.971L181.415 48.041z" />
    <glyph glyph-name="arrows"
      unicode="&#xF047;"
      horiz-adv-x="512" d=" M337.782 13.296L264.485 -60.486C259.7990000000001 -65.172 252.201 -65.172 247.514 -60.486L174.218 13.296C169.532 17.982 169.532 25.58 174.218 30.266L181.288 37.336C185.974 42.0219999999999 193.572 42.0219999999999 198.259 37.336L239 -3.887H240V176H60.113V175L101.337 134.259C106.023 129.573 106.023 121.975 101.337 117.288L94.266 110.218C89.58 105.532 81.982 105.532 77.296 110.218L3.515 183.515C-1.171 188.201 -1.171 195.799 3.515 200.486L77.297 273.783C81.983 278.469 89.581 278.469 94.268 273.783L101.339 266.712C106.025 262.026 106.025 254.428 101.339 249.741L60.113 209V208H240V387.887H239L198.259 346.663C193.573 341.977 185.975 341.977 181.288 346.663L174.218 353.7340000000001C169.532 358.42 169.531 366.0180000000001 174.218 370.704L247.515 444.486C252.201 449.1720000000001 259.7990000000001 449.1720000000001 264.486 444.486L337.783 370.704C342.469 366.0180000000001 342.469 358.42 337.783 353.733L330.712 346.6620000000001C326.026 341.976 318.428 341.976 313.741 346.6620000000001L273 387.887H272V208H451.887V209L410.663 249.741C405.9770000000001 254.427 405.9770000000001 262.025 410.663 266.712L417.7340000000001 273.782C422.42 278.468 430.0180000000001 278.468 434.7040000000001 273.782L508.486 200.485C513.173 195.799 513.172 188.201 508.486 183.514L434.7040000000001 110.217C430.0180000000001 105.531 422.4200000000001 105.531 417.7340000000001 110.217L410.663 117.287C405.9770000000001 121.973 405.9770000000001 129.571 410.663 134.258L451.887 175V176H272V-3.887H273L313.741 37.337C318.427 42.023 326.025 42.023 330.712 37.337L337.782 30.266C342.468 25.581 342.468 17.9829999999999 337.782 13.2959999999999z" />
    <glyph glyph-name="assistive-listening-systems"
      unicode="&#xF2A2;"
      horiz-adv-x="512" d=" M217.6 -64C208.763 -64 201.6 -56.837 201.6 -48S208.763 -32 217.6 -32C258.772 -32 292.267 1.495 292.267 42.666C292.267 127.84 365.658 136.566 365.658 208C365.658 279.1670000000001 307.759 337.0660000000001 236.591 337.0660000000001C165.424 337.0660000000001 107.525 279.1670000000001 107.525 208C107.525 199.163 100.362 192 91.525 192S75.525 199.163 75.525 208C75.525 296.812 147.779 369.0660000000001 236.591 369.0660000000001S397.657 296.812 397.657 208C397.657 121.143 324.266 111.959 324.266 42.666C324.267 -16.149 276.416 -64 217.6 -64zM333.333 208C333.333 261.8160000000001 289.55 305.6 235.733 305.6S138.133 261.817 138.133 208C138.133 199.163 145.296 192 154.133 192S170.133 199.163 170.133 208C170.133 244.172 199.561 273.6 235.733 273.6S301.333 244.172 301.333 208C301.333 199.163 308.496 192 317.333 192S333.333 199.163 333.333 208zM439.803 253.984C448.251 256.5750000000001 452.998 265.525 450.407 273.972C435.763 321.704 405.023 363.7680000000001 363.848 392.413C356.594 397.459 346.622 395.6720000000001 341.577 388.4170000000001C336.5299999999999 381.163 338.319 371.1910000000001 345.5729999999999 366.146C380.8949999999999 341.572 407.2609999999999 305.5030000000001 419.815 264.587C422.408 256.134 431.36 251.394 439.803 253.984zM500.691 272.634C509.138 275.228 513.884 284.178 511.292 292.625C492.386 354.213 452.886 408.373 400.0590000000001 445.132C392.8060000000001 450.178 382.834 448.391 377.7870000000001 441.137C372.74 433.884 374.5290000000001 423.912 381.7820000000001 418.865C428.7600000000001 386.177 463.8870000000001 338.01 480.7 283.2340000000001C483.2930000000001 274.7870000000001 492.241 270.0420000000001 500.691 272.634zM240 192C231.163 192 224 184.837 224 176S231.163 160 240 160S256 167.163 256 176S248.837 192 240 192zM176 128C167.163 128 160 120.837 160 112S167.163 96 176 96S192 103.163 192 112S184.837 128 176 128zM80 32C71.163 32 64 24.837 64 16S71.163 0 80 0S96 7.163 96 16S88.837 32 80 32zM16 -32C7.163 -32 0 -39.163 0 -48S7.163 -64 16 -64S32 -56.837 32 -48S24.837 -32 16 -32zM171.313 43.313L107.313 107.313L84.686 84.686L148.686 20.686L171.313 43.313z" />
    <glyph glyph-name="asterisk"
      unicode="&#xF069;"
      horiz-adv-x="512" d=" M475.31 83.856L288 192L475.31 300.144C481.05 303.458 483.016 310.7970000000001 479.702 316.536L475.702 323.464C472.388 329.204 465.049 331.17 459.31 327.856L272 219.713V436C272 442.627 266.627 448 260 448H252C245.373 448 240 442.627 240 436V219.713L52.69 327.856C46.95 331.17 39.611 329.203 36.298 323.464L32.298 316.536C28.984 310.796 30.951 303.457 36.69 300.144L224 192L36.69 83.856C30.95 80.542 28.984 73.203 32.298 67.464L36.298 60.536C39.612 54.796 46.951 52.83 52.69 56.144L240 164.287V-52C240 -58.627 245.373 -64 252 -64H260C266.627 -64 272 -58.627 272 -52V164.287L459.31 56.144C465.05 52.83 472.389 54.797 475.702 60.536L479.702 67.464C483.016 73.204 481.049 80.543 475.31 83.856z" />
    <glyph glyph-name="at"
      unicode="&#xF1FA;"
      horiz-adv-x="512" d=" M256 440C118.941 440 8 329.081 8 192C8 54.942 118.919 -56 256 -56C308.925 -56 360.68 -38.922 403.092 -7.681C408.593 -3.629 409.515 4.243 405.187 9.53L400.113 15.728C396.0950000000001 20.637 388.92 21.611 383.806 17.857C346.93 -9.208 301.974 -24 256 -24C136.627 -24 40 72.607 40 192C40 311.375 136.607 408 256 408C374.445 408 472 327.976 472 208C472 135.127 419.181 99.759 355.935 99.759C336.201 99.759 332.24 110.575 336.432 133.627L368.502 297.698C369.951 305.1090000000001 364.276 312 356.725 312H344.3040000000001A12 12 0 0 1 332.523 302.2820000000001C330.2290000000001 290.4360000000001 329.663 288.818 328.6620000000001 276.635C316.9330000000001 303.713 290.023 319.658 255.2870000000001 319.658C187.2430000000001 319.658 122.1110000000001 256.7080000000001 122.1110000000001 162.631C122.1110000000001 101.044 156.0260000000001 64.277 212.8340000000001 64.277C252.5630000000001 64.277 283.4350000000001 88.5550000000001 299.4670000000001 111.259C298.2560000000001 83.473 316.9220000000001 69.046 345.4420000000001 69.046C453.089 69.046 504 126.271 504 208C504 344.1860000000001 393.863 440 256 440zM218.08 97.373C181.399 97.373 159.5 122.481 159.5 164.539C159.5 239.229 210.265 286.084 256.717 286.084C295.574 286.084 314.819 258.294 314.819 220.349C314.819 162.216 276.45 97.373 218.08 97.373z" />
    <glyph glyph-name="audio-description"
      unicode="&#xF29E;"
      horiz-adv-x="512" d=" M464 384H48C21.49 384 0 362.51 0 336V48C0 21.49 21.49 0 48 0H464C490.51 0 512 21.49 512 48V336C512 362.51 490.51 384 464 384zM480 48C480 39.178 472.822 32 464 32H48C39.178 32 32 39.178 32 48V336C32 344.822 39.178 352 48 352H464C472.822 352 480 344.822 480 336V48zM186.589 145.217H119.254L105.746 104.243A11.999000000000002 11.999000000000002 0 0 0 94.35 96H84.01C75.734 96 69.943 104.18 72.691 111.986L131.846 279.986A12 12 0 0 0 143.165 288.001H162.679A12 12 0 0 0 173.998 279.986L233.153 111.986C235.902 104.18 230.11 96 221.834 96H211.494C206.314 96 201.719 99.324 200.097 104.243L186.589 145.217zM152.787 254.738S148.46 235.808 144.674 224.992L127.638 173.612H177.936L160.899 224.992C157.384 235.809 153.328 254.738 153.328 254.738H152.787zM263.385 276C263.385 282.627 268.758 288 275.385 288H328.828C388.05 288 426.721 252.845 426.721 192.27C426.721 131.696 388.051 96 328.828 96H275.385C268.758 96 263.385 101.373 263.385 108V276zM326.934 126.017C365.875 126.017 390.753 149.003 390.753 192.27C390.753 234.997 365.334 257.983 326.934 257.983H298.27V126.017H326.934z" />
    <glyph glyph-name="backward"
      unicode="&#xF04A;"
      horiz-adv-x="512" d=" M267.5 166.9L459.5 7.5C480.1 -9.7 512 4.7 512 32.1V352C512 379.4 480.1 393.8 459.5 376.6L267.5 216C252.2 203.2 252.2 179.6 267.5 166.9zM288 191.4L480 352V32L288 191.4zM11.5 166.9L203.5 7.5C224.1 -9.7 256 4.7 256 32.1V352C256 379.4 224.1 393.8 203.5 376.6L11.5 216C-3.8 203.2 -3.8 179.6 11.5 166.9zM32 191.4L224 352V32L32 191.4z" />
    <glyph glyph-name="badge-check"
      unicode="&#xF336;"
      horiz-adv-x="512" d=" M512 192C512 227.496 492.589 260.153 462.402 277.502C471.477 311.113 462.113 347.9260000000001 437.019 373.019C411.927 398.113 375.117 407.477 341.501 398.403C324.153 428.589 291.496 448 256 448S187.847 428.589 170.498 398.402C136.886 407.478 100.073 398.111 74.98 373.0180000000001C49.886 347.925 40.522 311.113 49.597 277.501C19.411 260.153 0 227.496 0 192S19.411 123.847 49.598 106.498C40.523 72.887 49.887 36.074 74.981 10.979C101.492 -15.528 138.436 -23.175 170.513 -14.427C187.865 -44.6 220.514 -64 256 -64S324.135 -44.6 341.487 -14.427C374.196 -23.347 410.958 -15.078 437.019 10.98C462.1129999999999 36.074 471.477 72.886 462.4019999999999 106.4979999999999C492.589 123.847 512 156.504 512 192zM420.855 123.71C426.201 111.932 450.437 69.653 414.392 33.608C385.529 4.747 356.8450000000001 12.3679999999999 324.289 27.144C319.745 15.041 306.99 -32 256 -32C203.894 -32 191.319 17.533 187.71 27.145C155.099 12.344 126.36 4.859 97.607 33.608C60.861 70.355 86.781 114.098 91.144 123.711C79.042 128.255 32 141.01 32 192C32 244.106 81.533 256.681 91.145 260.29C85.799 272.068 61.563 314.3470000000001 97.608 350.3920000000001C134.444 387.225 178.364 361.098 187.711 356.856C192.255 368.959 205.01 416 256 416C308.106 416 320.681 366.467 324.29 356.855C336.0590000000001 362.197 378.3490000000001 386.435 414.3930000000001 350.391C451.139 313.646 425.2190000000001 269.902 420.8560000000001 260.289C432.9580000000001 255.745 480 242.99 480 192C480 139.894 430.467 127.319 420.855 123.71zM388.451 262.512L207.971 83.48C203.266 78.8130000000001 195.668 78.843 191.001 83.548L105.123 170.12C100.456 174.825 100.486 182.423 105.191 187.09L113.711 195.541C118.416 200.208 126.014 200.178 130.682 195.473L199.658 125.94L363.099 288.069C367.804 292.736 375.402 292.706 380.069 288.001L388.521 279.481C393.187 274.778 393.156 267.18 388.451 262.512z" />
    <glyph glyph-name="badge"
      unicode="&#xF335;"
      horiz-adv-x="512" d=" M256 -64C220.5 -64 187.9 -44.6 170.5 -14.4C138.4 -23.1 101.5 -15.5 75 11C49.9 36.1 40.5 72.9 49.6 106.5C19.4 123.8 0 156.5 0 192S19.4 260.2 49.6 277.5C40.5 311.1 49.9 347.9 75 373C100.1 398.1 136.9 407.5 170.5 398.4C187.8 428.6 220.5 448 256 448S324.2 428.6 341.5 398.4C375.1 407.5 411.9 398.1 437 373C462.1 347.9 471.5 311.1 462.4 277.5C492.6 260.2 512 227.5 512 192S492.6 123.8 462.4 106.5C471.5 72.9 462.1 36.1 437 11C410.9 -15.1 374.2 -23.3 341.5 -14.4C324.1 -44.6 291.5 -64 256 -64zM187.7 27.1C191.3 17.5 203.9 -32 256 -32C307 -32 319.7 15 324.3 27.1C356.9000000000001 12.3 385.5 4.7 414.4 33.6C450.4 69.6 426.2 111.9 420.9 123.7000000000001C430.5 127.3000000000001 480 139.9 480 192.0000000000001C480 243.0000000000001 433 255.7000000000001 420.9 260.3000000000001C425.3 269.9000000000001 451.2 313.7000000000001 414.4 350.4000000000001C378.4 386.4000000000001 336.1 362.2000000000001 324.3 356.9000000000001C320.7 366.5 308.1 416 256 416C205 416 192.3 369 187.7 356.9C178.4 361.1 134.4 387.3 97.6 350.4C61.6 314.4 85.8 272.1 91.1 260.3C81.5 256.7 32 244.1 32 192C32 141 79 128.3 91.1 123.7C86.7 114.1 60.8 70.3 97.6 33.6C126.4 4.9 155.1 12.3 187.7 27.1z" />
    <glyph glyph-name="balance-scale"
      unicode="&#xF24E;"
      horiz-adv-x="576" d=" M304 290.016C331.604 297.121 352 322.178 352 352H468C474.627 352 480 357.373 480 364V372C480 378.627 474.627 384 468 384H343.417C318.733 426.653 257.251 426.624 232.584 384H108C101.373 384 96 378.627 96 372V364C96 357.373 101.373 352 108 352H224C224 322.179 244.396 297.121 272 290.016V0H108C101.373 0 96 -5.373 96 -12V-20C96 -26.627 101.373 -32 108 -32H468C474.627 -32 480 -26.627 480 -20V-12C480 -5.373 474.627 0 468 0H304V290.016zM256 352C256 369.645 270.355 384 288 384S320 369.645 320 352S305.645 320 288 320S256 334.355 256 352zM575.983 160C575.982 173.131 577.5329999999999 166.723 491.136 304.9600000000001C478.631 324.969 449.401 325.019 436.864 304.9600000000001C349.966 165.923 352.017 172.847 352.017 160H352C352 104.645 404.671 64 464 64C522.921 64 576 104.307 576 160H575.983zM464 288L544 160H384L464 288zM394.7630000000001 128H533.238C502.296 85.32 425.6410000000001 85.407 394.7630000000001 128zM224 160H223.983C223.982 173.131 225.533 166.723 139.136 304.9600000000001C126.631 324.969 97.401 325.019 84.864 304.9600000000001C-2.034 165.923 0.017 172.847 0.017 160H0C0 104.138 53.283 64 112 64C170.784 64 224 104.193 224 160zM112 288L192 160H32L112 288zM42.763 128H181.238C150.296 85.32 73.641 85.407 42.763 128z" />
    <glyph glyph-name="ban"
      unicode="&#xF05E;"
      horiz-adv-x="512" d=" M256 440C119.033 440 8 328.967 8 192S119.033 -56 256 -56S504 55.033 504 192S392.967 440 256 440zM103.265 39.265C22.643 119.887 19.116 248.222 92.365 333.008L397.009 28.365C312.2050000000001 -44.899 183.871 -41.341 103.265 39.265zM419.635 50.992L114.992 355.635C199.796 428.898 328.129 425.3400000000001 408.735 344.735C489.357 264.1140000000001 492.884 135.778 419.635 50.992z" />
    <glyph glyph-name="barcode"
      unicode="&#xF02A;"
      horiz-adv-x="512" d=" M0 0V384H18V0H0zM26.857 0.273V384H36V0.273H26.857zM54 0.273V384H62.857V0.273H54zM98.857 0.273V384H107.714V0.273H98.857zM134.857 0.273V384H152.571V0.273H134.857zM179.714 0.273V384H188.571V0.273H179.714zM197.714 0.273V384H206.571V0.273H197.714zM215.714 0.273V384H224.571V0.273H215.714zM251.429 0.273V384H269.429V0.273H251.429zM296.286 0.273V384H314.286V0.273H296.286zM332.2850000000001 0.273V384H350.286V0.273H332.2850000000001zM368.286 0.273V384H386.287V0.273H368.286zM395.1430000000001 0.273V384H413.1430000000001V0.273H395.1430000000001zM440.2860000000001 0.273V384H467.143V0.273H440.2860000000001zM476.0000000000001 0.273V384H485.143V0.273H476zM494.0000000000001 0V384H512V0H494z" />
    <glyph glyph-name="bars"
      unicode="&#xF0C9;"
      horiz-adv-x="448" d=" M442 334H6A6 6 0 0 0 0 340V364A6 6 0 0 0 6 370H442A6 6 0 0 0 448 364V340A6 6 0 0 0 442 334zM442 174H6A6 6 0 0 0 0 180V204A6 6 0 0 0 6 210H442A6 6 0 0 0 448 204V180A6 6 0 0 0 442 174zM442 14H6A6 6 0 0 0 0 20V44A6 6 0 0 0 6 50H442A6 6 0 0 0 448 44V20A6 6 0 0 0 442 14z" />
    <glyph glyph-name="bath"
      unicode="&#xF2CD;"
      horiz-adv-x="512" d=" M500 192H64V344C64 366.056 81.944 384 104 384C120.819 384 135.237 373.56 141.14 358.825C122.899 334.973 123.699 301.141 143.56 278.18C139.766 274.386 139.766 268.2340000000001 143.56 264.44L152.44 255.56C156.234 251.766 162.386 251.766 166.18 255.56L256.44 345.82C260.234 349.6140000000001 260.234 355.766 256.44 359.56L247.56 368.44C243.766 372.234 237.614 372.234 233.82 368.44C215.002 384.717 188.878 388.2 166.933 378.885C154.635 400.997 131.047 416 104 416C64.299 416 32 383.701 32 344V192H12C5.373 192 0 186.627 0 180V172C0 165.373 5.373 160 12 160H32V96C32 67.57 44.362 42.031 64 24.453V-20C64 -26.627 69.373 -32 76 -32H84C90.627 -32 96 -26.627 96 -20V5.47A95.842 95.842 0 0 1 128 0H384A95.842 95.842 0 0 1 416 5.47V-20C416 -26.627 421.373 -32 428 -32H436C442.627 -32 448 -26.627 448 -20V24.453C467.638 42.031 480 67.57 480 96V160H500C506.627 160 512 165.373 512 172V180C512 186.627 506.627 192 500 192zM169.37 342.63C180.73 353.98 198.56 355 211.08 345.7L166.3 300.92C157 313.44 158.02 331.27 169.37 342.63zM448 96C448 60.71 419.29 32 384 32H128C92.71 32 64 60.71 64 96V160H448V96z" />
    <glyph glyph-name="battery-bolt"
      unicode="&#xF376;"
      horiz-adv-x="640" d=" M640 264V120C640 106.745 629.255 96 616 96H608V80C608 53.49 586.51 32 560 32H400.69L418.718 64H560C568.823 64 576 71.177 576 80V128H608V256H576V304C576 312.823 568.823 320 560 320H469.224C456.001 329.205 440.995 334.344 425.814 335.66L429.785 350.855C429.886 351.236 429.976 351.618 430.072 352H560C586.51 352 608 330.51 608 304V288H616C629.255 288 640 277.255 640 264zM32 80V304C32 312.823 39.177 320 48 320H143.388L146.598 352H48C21.49 352 0 330.51 0 304V80C0 53.49 21.49 32 48 32H197.734C197.768 32.133 197.797 32.267 197.831 32.4L205.541 64H48C39.177 64 32 71.177 32 80zM454.616 225.511L321.664 -10.482C314.042 -24.12 299.81 -32 284.985 -32C257.69 -32 237.34 -6.099 244.38 20.684L278.374 160H222.004C197.264 160 177.854 181.313 180.192 205.964L197.444 377.964C199.487 399.528 217.595 416 239.255 416H342.812C370.468 416 390.523 389.728 383.375 363.108L363.745 288H417.953C449.985 288 470.241 253.472 454.616 225.511zM417.952 256H322.306L352.416 371.2L352.443 371.304L352.471 371.407C354.171 377.738 349.3930000000001 384 342.813 384H239.255A9.96 9.96 0 0 1 229.299 374.944L229.291 374.857L229.282 374.77L212.042 202.889C211.519 197.06 216.131 191.999 222.002 191.999H319.1190000000001L275.466 13.097L275.399 12.8220000000001L275.327 12.5480000000001C273.604 5.9930000000001 278.701 1e-13 284.983 1e-13C287.825 1e-13 291.615 1.347 293.727 5.128L293.754 5.176L293.781 5.224L426.69 241.14C430.383 247.774 425.57 256 417.952 256z" />
    <glyph glyph-name="battery-empty"
      unicode="&#xF244;"
      horiz-adv-x="640" d=" M560 320C568.823 320 576 312.823 576 304V256H608V128H576V80C576 71.177 568.823 64 560 64H48C39.177 64 32 71.177 32 80V304C32 312.823 39.177 320 48 320H560M560 352H48C21.49 352 0 330.51 0 304V80C0 53.49 21.49 32 48 32H560C586.51 32 608 53.49 608 80V96H616C629.255 96 640 106.745 640 120V264C640 277.255 629.255 288 616 288H608V304C608 330.51 586.51 352 560 352z" />
    <glyph glyph-name="battery-full"
      unicode="&#xF240;"
      horiz-adv-x="640" d=" M560 320C568.823 320 576 312.823 576 304V256H608V128H576V80C576 71.177 568.823 64 560 64H48C39.177 64 32 71.177 32 80V304C32 312.823 39.177 320 48 320H560M560 352H48C21.49 352 0 330.51 0 304V80C0 53.49 21.49 32 48 32H560C586.51 32 608 53.49 608 80V96H616C629.255 96 640 106.745 640 120V264C640 277.255 629.255 288 616 288H608V304C608 330.51 586.51 352 560 352zM128 134V250A6 6 0 0 1 122 256H102A6 6 0 0 1 96 250V134A6 6 0 0 1 102 128H122A6 6 0 0 1 128 134zM192 134V250A6 6 0 0 1 186 256H166A6 6 0 0 1 160 250V134A6 6 0 0 1 166 128H186A6 6 0 0 1 192 134zM256 134V250A6 6 0 0 1 250 256H230A6 6 0 0 1 224 250V134A6 6 0 0 1 230 128H250A6 6 0 0 1 256 134zM320 134V250A6 6 0 0 1 314 256H294A6 6 0 0 1 288 250V134A6 6 0 0 1 294 128H314A6 6 0 0 1 320 134zM384 134V250A6 6 0 0 1 378 256H358A6 6 0 0 1 352 250V134A6 6 0 0 1 358 128H378A6 6 0 0 1 384 134zM448 134V250A6 6 0 0 1 442 256H422A6 6 0 0 1 416 250V134A6 6 0 0 1 422 128H442A6 6 0 0 1 448 134zM512 134V250A6 6 0 0 1 506 256H486A6 6 0 0 1 480 250V134A6 6 0 0 1 486 128H506A6 6 0 0 1 512 134z" />
    <glyph glyph-name="battery-half"
      unicode="&#xF242;"
      horiz-adv-x="640" d=" M560 320C568.823 320 576 312.823 576 304V256H608V128H576V80C576 71.177 568.823 64 560 64H48C39.177 64 32 71.177 32 80V304C32 312.823 39.177 320 48 320H560M560 352H48C21.49 352 0 330.51 0 304V80C0 53.49 21.49 32 48 32H560C586.51 32 608 53.49 608 80V96H616C629.255 96 640 106.745 640 120V264C640 277.255 629.255 288 616 288H608V304C608 330.51 586.51 352 560 352zM128 134V250A6 6 0 0 1 122 256H102A6 6 0 0 1 96 250V134A6 6 0 0 1 102 128H122A6 6 0 0 1 128 134zM192 134V250A6 6 0 0 1 186 256H166A6 6 0 0 1 160 250V134A6 6 0 0 1 166 128H186A6 6 0 0 1 192 134zM256 134V250A6 6 0 0 1 250 256H230A6 6 0 0 1 224 250V134A6 6 0 0 1 230 128H250A6 6 0 0 1 256 134zM320 134V250A6 6 0 0 1 314 256H294A6 6 0 0 1 288 250V134A6 6 0 0 1 294 128H314A6 6 0 0 1 320 134z" />
    <glyph glyph-name="battery-quarter"
      unicode="&#xF243;"
      horiz-adv-x="640" d=" M560 320C568.823 320 576 312.823 576 304V256H608V128H576V80C576 71.177 568.823 64 560 64H48C39.177 64 32 71.177 32 80V304C32 312.823 39.177 320 48 320H560M560 352H48C21.49 352 0 330.51 0 304V80C0 53.49 21.49 32 48 32H560C586.51 32 608 53.49 608 80V96H616C629.255 96 640 106.745 640 120V264C640 277.255 629.255 288 616 288H608V304C608 330.51 586.51 352 560 352zM128 134V250A6 6 0 0 1 122 256H102A6 6 0 0 1 96 250V134A6 6 0 0 1 102 128H122A6 6 0 0 1 128 134zM192 134V250A6 6 0 0 1 186 256H166A6 6 0 0 1 160 250V134A6 6 0 0 1 166 128H186A6 6 0 0 1 192 134z" />
    <glyph glyph-name="battery-slash"
      unicode="&#xF377;"
      horiz-adv-x="640" d=" M333.525 64L356.525 32H48C21.49 32 0 53.49 0 80V304C0 330.51 21.49 352 48 352H126.525L149.525 320H48C39.178 320 32 312.823 32 304V80C32 71.177 39.178 64 48 64H333.525zM640 264V120C640 106.745 629.255 96 616 96H608V80C608 53.49 586.51 32 560 32H454.363L506.579 -40.648C510.449 -46.032 509.221 -53.532 503.838 -57.402L497.798 -61.743A11.95 11.95 0 0 0 490.802 -64A11.988 11.988 0 0 0 481.044 -59.001L133.421 424.648C129.551 430.032 130.779 437.532 136.162 441.402L142.202 445.743A11.95 11.95 0 0 0 149.198 448C152.932 448 156.611 446.264 158.956 443.001L224.363 352H560C586.51 352 608 330.51 608 304V288H616C629.255 288 640 277.255 640 264zM608 256H576V304C576 312.823 568.822 320 560 320H247.363L431.363 64H560C568.822 64 576 71.177 576 80V128H608V256z" />
    <glyph glyph-name="battery-three-quarters"
      unicode="&#xF241;"
      horiz-adv-x="640" d=" M560 320C568.823 320 576 312.823 576 304V256H608V128H576V80C576 71.177 568.823 64 560 64H48C39.177 64 32 71.177 32 80V304C32 312.823 39.177 320 48 320H560M560 352H48C21.49 352 0 330.51 0 304V80C0 53.49 21.49 32 48 32H560C586.51 32 608 53.49 608 80V96H616C629.255 96 640 106.745 640 120V264C640 277.255 629.255 288 616 288H608V304C608 330.51 586.51 352 560 352zM128 134V250A6 6 0 0 1 122 256H102A6 6 0 0 1 96 250V134A6 6 0 0 1 102 128H122A6 6 0 0 1 128 134zM192 134V250A6 6 0 0 1 186 256H166A6 6 0 0 1 160 250V134A6 6 0 0 1 166 128H186A6 6 0 0 1 192 134zM256 134V250A6 6 0 0 1 250 256H230A6 6 0 0 1 224 250V134A6 6 0 0 1 230 128H250A6 6 0 0 1 256 134zM320 134V250A6 6 0 0 1 314 256H294A6 6 0 0 1 288 250V134A6 6 0 0 1 294 128H314A6 6 0 0 1 320 134zM384 134V250A6 6 0 0 1 378 256H358A6 6 0 0 1 352 250V134A6 6 0 0 1 358 128H378A6 6 0 0 1 384 134zM448 134V250A6 6 0 0 1 442 256H422A6 6 0 0 1 416 250V134A6 6 0 0 1 422 128H442A6 6 0 0 1 448 134z" />
    <glyph glyph-name="bed"
      unicode="&#xF236;"
      horiz-adv-x="576" d=" M32 372V128H564C570.627 128 576 122.627 576 116V0H544V96H32V0H0V372C0 378.627 5.373 384 12 384H20C26.627 384 32 378.627 32 372zM64 256C64 309.019 106.981 352 160 352S256 309.019 256 256S213.019 160 160 160S64 202.981 64 256zM96 256C96 220.71 124.71 192 160 192S224 220.71 224 256S195.29 320 160 320S96 291.29 96 256zM576 224V160H288V296C288 309.255 298.745 320 312 320H480C533.019 320 576 277.019 576 224zM544 224C544 259.29 515.29 288 480 288H320V192H544V224z" />
    <glyph glyph-name="beer"
      unicode="&#xF0FC;"
      horiz-adv-x="448" d=" M384 352H352V368C352 394.51 330.51 416 304 416H48C21.49 416 0 394.51 0 368V16C0 -10.51 21.49 -32 48 -32H304C330.51 -32 352 -10.51 352 16V38.112L412.621 68.423C434.443 79.334 448 101.269 448 125.666V288C448 323.29 419.29 352 384 352zM320 16C320 7.178 312.822 0 304 0H48C39.178 0 32 7.178 32 16V368C32 376.822 39.178 384 48 384H304C312.822 384 320 376.822 320 368V16zM416 125.666C416 113.467 409.222 102.5 398.311 97.044L352 73.888V320H384C401.645 320 416 305.645 416 288V125.666zM192 304V80C192 71.163 184.836 64 176 64S160 71.163 160 80V304C160 312.837 167.164 320 176 320S192 312.837 192 304zM128 304V80C128 71.163 120.836 64 112 64S96 71.163 96 80V304C96 312.837 103.164 320 112 320S128 312.837 128 304zM256 304V80C256 71.163 248.837 64 240 64S224 71.163 224 80V304C224 312.837 231.163 320 240 320S256 312.837 256 304z" />
    <glyph glyph-name="bell-slash"
      unicode="&#xF1F6;"
      horiz-adv-x="576" d=" M112.048 32C97.825 32 90.717 49.296 100.734 59.314C133.335 91.9140000000001 156.802 128.161 159.696 220.146L128.204 248.039A163.61 163.61 0 0 1 128 240C128 131.882 100.357 104.191 78.107 81.941C47.958 51.792 69.325 0 112.048 0H224C224 -35.29 252.71 -64 288 -64S352 -35.29 352 0H408.249L372.12 32H112.048zM288 -32C270.355 -32 256 -17.645 256 0H320C320 -17.645 305.645 -32 288 -32zM571.923 -36.926L504.542 22.495C515.51 40.163 515.23 64.596 497.884 81.942C475.634 104.191 448 131.882 448 240C448 319.394 390.169 385.269 314.337 397.8300000000001A31.845000000000002 31.845000000000002 0 0 1 320 416C320 433.673 305.673 448 288 448S256 433.673 256 416C256 409.25 258.0950000000001 402.992 261.663 397.83C217.739 390.554 179.873 365.379 155.77 330.063L25.467 444.972C20.465 449.382 12.819 448.921 8.389 443.941L3.042 437.93C-1.388 432.95 -0.924 425.338 4.077 420.927L550.533 -60.971C555.535 -65.3819999999999 563.181 -64.92 567.611 -59.94L572.959 -53.929C577.3879999999999 -48.95 576.925 -41.337 571.923 -36.926zM288 368C358.74 368 416 310.751 416 240C416 133.581 440.206 94.365 475.257 59.314C479.509 55.062 480.673 49.526 479.531 44.551L179.987 308.706C202.695 344.358 242.551 368 288 368z" />
    <glyph glyph-name="bell"
      unicode="&#xF0F3;"
      horiz-adv-x="448" d=" M433.884 81.941C411.634 104.191 384 131.882 384 240C384 319.394 326.169 385.269 250.337 397.8300000000001A31.845000000000002 31.845000000000002 0 0 1 256 416C256 433.673 241.673 448 224 448S192 433.673 192 416C192 409.25 194.095 402.992 197.663 397.83C121.831 385.269 64 319.394 64 240C64 131.882 36.357 104.191 14.107 81.941C-16.042 51.792 5.325 0 48.048 0H160C160 -35.29 188.71 -64 224 -64S288 -35.29 288 0H399.943C442.581 0 464.094 51.731 433.884 81.941zM224 -32C206.355 -32 192 -17.645 192 0H256C256 -17.645 241.645 -32 224 -32zM399.943 32H48.048C33.825 32 26.717 49.296 36.734 59.314C71.585 94.164 96 133.175 96 240C96 310.741 153.249 368 224 368C294.74 368 352 310.751 352 240C352 133.581 376.206 94.365 411.257 59.314C421.314 49.256 414.11 32 399.943 32z" />
    <glyph glyph-name="bicycle"
      unicode="&#xF206;"
      horiz-adv-x="640" d=" M512.303 256C492.717 256.0470000000001 474.156 251.687 457.544 243.868L373.508 376.5610000000001A16 16 0 0 1 359.991 384H291.993C285.366 384 279.993 378.627 279.993 372V364C279.993 357.373 285.365 352 291.993 352H351.186L391.718 288H255.994V308C255.994 314.627 250.622 320 243.994 320H159.996C151.16 320 143.996 312.837 143.996 304S151.159 288 159.996 288H215.995L184.187 243.031C167.102 251.393 147.884 256.0660000000001 127.565 255.999C56.937 255.766 -0.001 198.63 0 128C0.001 57.308 57.307 0 127.997 0C187.638 0 237.752 40.793 251.961 96H303.992A16.001 16.001 0 0 1 317.0990000000001 102.824L417.8430000000001 246.748L430.5200000000001 226.73C402.1350000000001 203.281 384.0330000000001 167.827 383.9890000000001 128.143C383.9120000000001 58.1800000000001 440.8320000000001 0.644 510.7900000000001 0.005C581.349 -0.639 638.8910000000001 55.847 639.9830000000001 126C641.0820000000001 196.503 582.8130000000001 255.829 512.3030000000001 256zM127.997 32C75.064 32 31.999 75.065 31.999 128S75.063 224 127.997 224C141.304 224 153.986 221.276 165.518 216.361L98.89 121.176C91.47 110.577 99.083 96 111.997 96H218.503C205.296 58.752 169.715 32 127.997 32zM223.995 128H142.727L192.471 199.065C211.825 181.49 223.995 156.14 223.995 128zM295.663 128H255.9940000000001C255.9940000000001 167.04 238.511 201.992 210.954 225.47L232.325 256H385.26L295.663 128zM508.196 32.073C458.138 34.011 417.668 74.75 416.0420000000001 124.82C415.081 154.39 427.5750000000001 181.123 447.8520000000001 199.366L500.611 116.06C504.157 110.461 511.5700000000001 108.797 517.1690000000001 112.343L523.9270000000001 116.624C529.5260000000002 120.17 531.1900000000002 127.584 527.6440000000001 133.182L474.8590000000002 216.528C486.2860000000002 221.339 498.8310000000001 224.001 511.9870000000001 224.001C564.9200000000002 224.001 607.9850000000001 180.936 607.9850000000001 128.001C607.9860000000001 73.807 562.8490000000002 29.958 508.1960000000001 32.073z" />
    <glyph glyph-name="binoculars"
      unicode="&#xF1E5;"
      horiz-adv-x="512" d=" M448 328C448 341.255 437.255 352 424 352H416V392C416 405.255 405.255 416 392 416H312C298.745 416 288 405.255 288 392V352H224V392C224 405.255 213.255 416 200 416H120C106.745 416 96 405.255 96 392V352H88C74.745 352 64 341.255 64 328C64 224 0 208 0 64V16C0 -10.51 21.49 -32 48 -32H144C170.51 -32 192 -10.51 192 16V148C192 154.627 197.373 160 204 160H308C314.627 160 320 154.627 320 148V16C320 -10.51 341.49 -32 368 -32H464C490.51 -32 512 -10.51 512 16V64C512 208 448 224 448 328zM160 16C160 7.178 152.822 0 144 0H48C39.178 0 32 7.178 32 16V32H160V16zM192 190.323C173.555 185.085 160 168.101 160 148V64H32C32 95.855 35.377 123.458 42.325 148.387C48.454 170.379 56.458 187.684 64.932 206.006C79.449 237.394 94.436 269.798 95.886 320H192V190.323zM192 352H128V384H192V352zM288 192H224V320H288V192zM320 384H384V352H320V384zM320 190.323V320H416.1140000000001C417.564 269.798 432.5510000000001 237.394 447.0680000000001 206.006C455.542 187.684 463.546 170.378 469.6750000000001 148.387C476.623 123.458 480 95.855 480 64H352V148C352 168.101 338.445 185.085 320 190.323zM464 0H368C359.178 0 352 7.178 352 16V32H480V16C480 7.178 472.822 0 464 0z" />
    <glyph glyph-name="birthday-cake"
      unicode="&#xF1FD;"
      horiz-adv-x="448" d=" M96 352C78.25 352 64 366.25 64 384C64 415 96 407 96 448C108 448 128 418.5 128 392S113.75 352 96 352zM224 352C206.25 352 192 366.25 192 384C192 415 224 407 224 448C236 448 256 418.5 256 392S241.75 352 224 352zM352 352C334.25 352 320 366.25 320 384C320 415 352 407 352 448C364 448 384 418.5 384 392S369.75 352 352 352zM400 192H368V336H336V192H240V336H208V192H112V336H80V192H48C21.5 192 0 170.5 0 144V-64H448V144C448 170.5 426.5 192 400 192zM416 -32H32V40.043C48.222 49.522 55.928 64 74.75 64C102.701 64 106.003 32 149.5 32C192.343 32 196.717 64 224 64C252.148 64 255.201 32 298.75 32C342.107 32 345.517 64 373.5 64C391.988 64 399.745 49.525 416 40.045V-32zM416 80.374C406.374 88.248 394.783 96 373.5 96C330.07 96 326.675 64 298.75 64C271.055 64 267.296 96 224 96C181.158 96 176.782 64 149.5 64C121.352 64 118.298 96 74.75 96C53.287 96 41.649 88.226 32 80.342V144C32 152.822 39.178 160 48 160H400C408.822 160 416 152.822 416 144V80.374z" />
    <glyph glyph-name="blind"
      unicode="&#xF29D;"
      horiz-adv-x="384" d=" M206.817 -41.959C210.151 -50.143 206.219 -59.48 198.037 -62.813C189.871 -66.1419999999999 180.522 -62.231 177.183 -54.033L110.14 110.524L125.689 157.172L206.817 -41.9589999999999zM102.663 326.469A4 4 0 0 0 109.225 331.046L222.158 169.134C225.973 163.666 233.465 162.392 238.866 166.158C244.222 169.8950000000001 245.662 177.39 241.842 182.866L121.842 354.866A11.978 11.978 0 0 1 112 359.996V360H80V359.987C76.706 359.986 73.426 358.65 71.057 356.002L0 276.5850000000001V176C0 169.373 5.373 164 12 164S24 169.373 24 176V267.415L72 321.0610000000001V122.596L16.821 -42.936C14.026 -51.319 18.557 -60.38 26.94 -63.174C35.321 -65.968 44.384 -61.439 47.178 -53.0549999999999L120 165.403V301.6130000000001L102.663 326.4690000000001zM383.3880000000001 -57.874L245.791 161.537A20.279 20.279 0 0 0 239.011 157.292L376.611 -62.124A4 4 0 1 1 383.388 -57.874zM96 448C73.909 448 56 430.091 56 408S73.909 368 96 368S136 385.909 136 408S118.091 448 96 448z" />
    <glyph glyph-name="bold"
      unicode="&#xF032;"
      horiz-adv-x="320" d=" M249.139 205.872C283.0610000000001 224.86 302.3590000000001 259.375 302.3590000000001 301.62C302.3590000000001 344.041 282.86 382.333 252.6940000000001 399.17C232.561 410.495 207.478 416 176.01 416H12C5.373 416 0 410.627 0 404V396C0 389.373 5.373 384 12 384H31.95V0H12C5.373 0 0 -5.373 0 -12V-20C0 -26.627 5.373 -32 12 -32H181.68C201.614 -32 227.302 -30.823 249.173 -21.652C292.198 -3.781 320 41.753 320 94.35C320 146.846 291.804 190.722 249.139 205.872zM66.041 383.799H176.01C200.939 383.799 219.704 379.646 233.367 371.107C254.747 357.668 267.009 332.57 267.009 302.249C267.009 252.718 234.7440000000001 219.439 186.72 219.439H66.041V383.799zM233.235 8.114C220.65 2.789 203.786 0.2 181.68 0.2H66.041V187.24H190.499C246.813 187.24 284.65 149.403 284.65 93.089C284.65 52.881 265.45 21.123 233.235 8.114z" />
    <glyph glyph-name="bolt"
      unicode="&#xF0E7;"
      horiz-adv-x="320" d=" M186.071 416C196.586 416 204.251 406.009 201.524 395.851L168.268 272H271.9460000000001C284.122 272 291.85 258.819 285.911 248.191L133.967 -23.798A16.033 16.033 0 0 0 119.983 -32C109.837 -32 101.796 -22.311 104.526 -11.926L153.926 176H48.004C38.595 176 31.185 184.12 32.076 193.511L51.792 401.51A15.934 15.934 0 0 0 67.72 416H186.071M186.071 448H67.72C42.965 448 22.271 429.175 19.934 404.531L0.218 196.531C-2.453 168.358 19.729 144 48.004 144H112.427L73.577 -3.79C65.531 -34.398 88.788 -64 119.983 -64C136.926 -64 153.192 -54.995 161.902 -39.408L313.847 232.585C331.704 264.539 308.555 304 271.945 304H209.994L232.429 387.552C240.598 417.974 217.678 448 186.071 448z" />
    <glyph glyph-name="bomb"
      unicode="&#xF1E2;"
      horiz-adv-x="512" d=" M420.7 379.3L364.7 323.3L326.6 361.4C314.1 373.9 293.8 373.9 281.3 361.4L264.2 344.3C246.3 349.3 227.3999999999999 352 207.8999999999999 352C96 352 3.3 262.1 0.1 150.2C-3.3 32.5 91.1 -64 208 -64C323.1 -64 416 30.2 416 144C416 163.5 413.3 182.4 408.3 200.3L425.4000000000001 217.4C437.9000000000001 229.9 437.9000000000001 250.2 425.4000000000001 262.7L387.3 300.8L443.3 356.8L420.7 379.3zM372.4 209.7C378.2 189.2 384 171.9 384 144C384 47.8 305.5 -32 208 -32C183.8 -32 160.3 -27.2 138.3 -17.7C73.1 10.5 29.9 75.7000000000001 32.1 149.3C34.8 243.9 113.2 320 208 320C235.9 320 253.1 314.2 273.7 308.4L304 338.7L402.7 240S400.9 238.1 372.4 209.7zM512 376C512 369.4 506.6 364 500 364H476C469.4 364 464 369.4 464 376S469.4 388 476 388H500C506.6 388 512 382.6 512 376zM452 436V412C452 405.4 446.6 400 440 400S428 405.4 428 412V436C428 442.6 433.4 448 440 448S452 442.6 452 436zM457 393C452.3 397.7 452.3 405.3 457 410L474 427C478.7 431.7 486.3 431.7 491 427C495.7 422.3 495.7 414.7 491 410L474 393C469.3 388.3 461.7 388.3 457 393zM389.1 409.9C384.4000000000001 414.6 384.4000000000001 422.2 389.1 426.9C393.8 431.6 401.4000000000001 431.6 406.1 426.9L423.1 409.9C427.8 405.2 427.8 397.6 423.1 392.9C418.4000000000001 388.2 410.8 388.2 406.1 392.9L389.1 409.9zM490.9 342.1C495.6 337.4 495.6 329.8 490.9 325.1C486.2 320.4 478.6 320.4 473.9 325.1L456.9 342.1C452.2 346.8 452.2 354.4 456.9 359.1C461.6 363.8 469.2 363.8 473.9 359.1L490.9 342.1zM192 256C192 247.2 184.8 240 176 240C140.7 240 112 211.3 112 176C112 167.2 104.8 160 96 160S80 167.2 80 176C80 228.9 123.1 272 176 272C184.8 272 192 264.8 192 256z" />
    <glyph glyph-name="book"
      unicode="&#xF02D;"
      horiz-adv-x="448" d=" M356 288H188C181.4 288 176 293.4 176 300V308C176 314.6 181.4 320 188 320H356C362.6 320 368 314.6 368 308V300C368 293.4 362.6 288 356 288zM368 236V244C368 250.6 362.6 256 356 256H188C181.4 256 176 250.6 176 244V236C176 229.4 181.4 224 188 224H356C362.6 224 368 229.4 368 236zM432.7 -32H436C442.6 -32 448 -37.4 448 -44V-52C448 -58.6 442.6 -64 436 -64H80C35.8 -64 0 -28.2 0 16V368C0 412.2 35.8 448 80 448H424C437.3 448 448 437.3 448 424V56C448 46 441.8 37.4 433.1 33.8C429.5 17.7 428.7000000000001 -11.8 432.7000000000001 -32zM128 64H416V416H128V64zM32 48C45.4 58 62 64 80 64H96V416H80C53.5 416 32 394.5 32 368V48zM404.3 -32C401.2 -11.6 401.4000000000001 13.2 404.3 32H80C16 32 16 -32 80 -32H404.3z" />
    <glyph glyph-name="bookmark"
      unicode="&#xF02E;"
      horiz-adv-x="384" d=" M336 448H48C21.49 448 0 426.51 0 400V-64L192 48L384 -64V400C384 426.51 362.51 448 336 448zM352 -8.287L192 85.0460000000001L32 -8.2869999999999V400C32 408.822 39.178 416 48 416H336C344.822 416 352 408.822 352 400V-8.287z" />
    <glyph glyph-name="braille"
      unicode="&#xF2A1;"
      horiz-adv-x="640" d=" M64 192C64 174.327 49.673 160 32 160S0 174.327 0 192S14.327 224 32 224S64 209.673 64 192zM32 48C23.163 48 16 40.837 16 32S23.163 16 32 16S48 23.163 48 32S40.837 48 32 48zM32 384C14.327 384 0 369.673 0 352S14.327 320 32 320S64 334.327 64 352S49.673 384 32 384zM192 208C183.163 208 176 200.837 176 192S183.163 176 192 176S208 183.163 208 192S200.837 208 192 208zM192 48C183.163 48 176 40.837 176 32S183.163 16 192 16S208 23.163 208 32S200.837 48 192 48zM192 384C174.327 384 160 369.673 160 352S174.327 320 192 320S224 334.327 224 352S209.673 384 192 384zM448 208C439.163 208 432 200.837 432 192S439.163 176 448 176S464 183.163 464 192S456.837 208 448 208zM448 48C439.163 48 432 40.837 432 32S439.163 16 448 16S464 23.163 464 32S456.837 48 448 48zM448 384C430.327 384 416 369.673 416 352S430.327 320 448 320S480 334.327 480 352S465.673 384 448 384zM608 208C599.163 208 592 200.837 592 192S599.163 176 608 176S624 183.163 624 192S616.837 208 608 208zM608 48C599.163 48 592 40.837 592 32S599.163 16 608 16S624 23.163 624 32S616.837 48 608 48zM608 368C599.163 368 592 360.837 592 352S599.163 336 608 336S624 343.163 624 352S616.837 368 608 368z" />
    <glyph glyph-name="briefcase"
      unicode="&#xF0B1;"
      horiz-adv-x="512" d=" M464 352H352V392C352 405.255 341.255 416 328 416H184C170.745 416 160 405.255 160 392V352H48C21.49 352 0 330.51 0 304V16C0 -10.51 21.49 -32 48 -32H464C490.51 -32 512 -10.51 512 16V304C512 330.51 490.51 352 464 352zM192 384H320V352H192V384zM480 16C480 7.178 472.822 0 464 0H48C39.178 0 32 7.178 32 16V160H192V120C192 106.745 202.745 96 216 96H296C309.255 96 320 106.745 320 120V160H480V16zM224 160H288V128H224V160zM32 192V304C32 312.822 39.178 320 48 320H464C472.822 320 480 312.822 480 304V192H32z" />
    <glyph glyph-name="browser"
      unicode="&#xF37E;"
      horiz-adv-x="512" d=" M464 416H48C21.5 416 0 394.5 0 368V16C0 -10.5 21.5 -32 48 -32H464C490.5 -32 512 -10.5 512 16V368C512 394.5 490.5 416 464 416zM32 368C32 376.8 39.2 384 48 384H96V320H32V368zM480 16C480 7.2 472.8 0 464 0H48C39.2 0 32 7.2 32 16V288H480V16zM480 320H128V384H464C472.8 384 480 376.8 480 368V320z" />
    <glyph glyph-name="bug"
      unicode="&#xF188;"
      horiz-adv-x="576" d=" M544 176H480V297.373L515.313 332.686C521.562 338.934 521.562 349.065 515.313 355.313C509.065 361.561 498.934 361.561 492.686 355.313L457.373 320H417C417 390.74 359.751 448 289 448C218.26 448 161 390.751 161 320H118.627L75.314 363.313C69.065 369.5610000000001 58.935 369.5610000000001 52.686 363.313C46.438 357.065 46.438 346.934 52.686 340.6860000000001L96 297.373V176H32C23.164 176 16 168.837 16 160S23.164 144 32 144H96V120C96 83.366 107.256 49.314 126.484 21.111L68.687 -36.686C62.438 -42.934 62.438 -53.0650000000001 68.687 -59.313C74.936 -65.562 85.066 -65.561 91.314 -59.313L146.93 -3.6970000000001C178.851 -35.971 223.128 -56 272 -56H304C352.872 -56 397.149 -35.971 429.0710000000001 -3.698L484.687 -59.314C490.936 -65.563 501.066 -65.562 507.314 -59.314C513.563 -53.066 513.563 -42.9349999999999 507.314 -36.687L449.5170000000001 21.11C468.744 49.314 480 83.366 480 120V144H544C552.837 144 560 151.163 560 160S552.837 176 544 176zM289 416C342.019 416 385 373.019 385 320H193C193 373.019 235.981 416 289 416zM304 -24V212C304 218.627 298.627 224 292 224H284C277.373 224 272 218.627 272 212V-24C192.598 -24 128 40.599 128 120V288H448V120C448 40.599 383.401 -24 304 -24z" />
    <glyph glyph-name="building"
      unicode="&#xF1AD;"
      horiz-adv-x="448" d=" M192 341V301C192 294.373 186.627 289 180 289H140C133.373 289 128 294.373 128 301V341C128 347.627 133.373 353 140 353H180C186.627 353 192 347.627 192 341zM308 353H268C261.373 353 256 347.627 256 341V301C256 294.373 261.373 289 268 289H308C314.627 289 320 294.373 320 301V341C320 347.627 314.627 353 308 353zM180 257H140C133.373 257 128 251.627 128 245V205C128 198.373 133.373 193 140 193H180C186.627 193 192 198.373 192 205V245C192 251.627 186.627 257 180 257zM308 257H268C261.373 257 256 251.627 256 245V205C256 198.373 261.373 193 268 193H308C314.627 193 320 198.373 320 205V245C320 251.627 314.627 257 308 257zM180 161H140C133.373 161 128 155.627 128 149V109C128 102.373 133.373 97 140 97H180C186.627 97 192 102.373 192 109V149C192 155.627 186.627 161 180 161zM308 161H268C261.373 161 256 155.627 256 149V109C256 102.373 261.373 97 268 97H308C314.627 97 320 102.373 320 109V149C320 155.627 314.627 161 308 161zM448 -44V-64H0V-44C0 -37.373 5.373 -32 12 -32H32V424C32 437.255 42.745 448 56 448H392C405.255 448 416 437.255 416 424V-32H436C442.627 -32 448 -37.373 448 -44zM384 -32V416H64V-32H192V53C192 59.627 197.373 65 204 65H244C250.627 65 256 59.627 256 53V-32H384z" />
    <glyph glyph-name="bullhorn"
      unicode="&#xF0A1;"
      horiz-adv-x="576" d=" M544 256V416C544 433.7 529.7 448 512 448C447 392 338 320 208 320H48C21.5 320 0 298.5 0 272V176C0 149.5 21.5 128 48 128H64.8C59.5 69.4 79.8 21 93.7 -23.6C95.2 -28.6 98 -33.1 101.7 -36.8C119 -54.1 142.8 -64 167 -64C198.8 -64 227.9 -47 242.5 -16.3C249.5 -1.6 244.4 16 230.6 24.6C202.7 41.9999999999999 198.6 47.1 203.8 56.1C210.7 68.2 209 83.4 199.6 93.7C194.3 99.5 198.3 121.1 210.6 128C339.5 127.1 447.5 55.6 512.1 0C529.8000000000001 0 544.1 14.3 544.1 32V192C561.8000000000001 192 576.1 206.3 576.1 224S561.7 256 544 256zM213.7 -2.5C196.3 -39.2 150.2 -39.9 124.3 -14.1C110.5 30.4 91.4 75.1 97 128H170.7C162.4 108.8 163.1 85.9 176 72C156.1 37.3 184 16 213.7 -2.5zM32 176V272C32 280.8 39.2 288 48 288H224V160H48C39.2 160 32 167.2 32 176zM512 41.6C475.4 70.7000000000001 437.3 95 398.3 113.8C351 136.7 303.3 151.2 256 157V291C303.3 296.9 351 311.3 398.3 334.2C437.2 353.1 475.4 377.3 512 406.4V41.6z" />
    <glyph glyph-name="bullseye"
      unicode="&#xF140;"
      horiz-adv-x="512" d=" M256 408C374.663 408 472 311.945 472 192C472 73.337 375.945 -24 256 -24C137.337 -24 40 72.055 40 192C40 310.663 136.055 408 256 408M256 440C119.033 440 8 328.967 8 192S119.033 -56 256 -56S504 55.033 504 192S392.967 440 256 440zM256 312C322.319 312 376 258.33 376 192C376 125.681 322.33 72 256 72C189.681 72 136 125.67 136 192C136 258.319 189.67 312 256 312M256 344C172.053 344 104 275.947 104 192S172.053 40 256 40S408 108.053 408 192S339.947 344 256 344zM256 248C225.072 248 200 222.928 200 192S225.072 136 256 136S312 161.072 312 192S286.928 248 256 248z" />
    <glyph glyph-name="bus"
      unicode="&#xF207;"
      horiz-adv-x="512" d=" M160 96C160 78.327 145.673 64 128 64S96 78.327 96 96S110.327 128 128 128S160 113.673 160 96zM384 128C366.327 128 352 113.673 352 96S366.327 64 384 64S416 78.327 416 96S401.673 128 384 128zM512 296V216C512 202.745 501.255 192 488 192H480V48C480 27.142 466.623 9.357 448 2.752V-24C448 -46.091 430.091 -64 408 -64H360C337.909 -64 320 -46.091 320 -24V0H192V-24C192 -46.091 174.091 -64 152 -64H104C81.909 -64 64 -46.091 64 -24V2.752C45.377 9.357 32 27.142 32 48V192H24C10.745 192 0 202.745 0 216V296C0 309.255 10.745 320 24 320H32V347.429C32 426.5470000000001 175.336 448 256 448C336.976 448 480 426.544 480 347.429V320H488C501.255 320 512 309.255 512 296zM64 192H448V320H64V192zM64.435 352H447.565C440.977 387.739 357.736 416 256 416S71.023 387.739 64.435 352zM160 0H96V-24C96 -28.411 99.589 -32 104 -32H152C156.411 -32 160 -28.411 160 -24V0zM416 -24V0H352V-24C352 -28.411 355.589 -32 360 -32H408C412.411 -32 416 -28.411 416 -24zM448 48V160H64V48C64 39.163 71.163 32 80 32H432C440.837 32 448 39.163 448 48z" />
    <glyph glyph-name="calculator"
      unicode="&#xF1EC;"
      horiz-adv-x="384" d=" M336 448H48C21.49 448 0 426.51 0 400V-16C0 -42.51 21.49 -64 48 -64H336C362.51 -64 384 -42.51 384 -16V400C384 426.51 362.51 448 336 448zM48 416H336C344.822 416 352 408.822 352 400V320H32V400C32 408.822 39.178 416 48 416zM336 -32H48C39.178 -32 32 -24.822 32 -16V288H352V-16C352 -24.822 344.822 -32 336 -32zM128 244V204C128 197.373 122.627 192 116 192H76C69.373 192 64 197.373 64 204V244C64 250.627 69.373 256 76 256H116C122.627 256 128 250.627 128 244zM224 244V204C224 197.373 218.627 192 212 192H172C165.373 192 160 197.373 160 204V244C160 250.627 165.373 256 172 256H212C218.627 256 224 250.627 224 244zM320 244V204C320 197.373 314.627 192 308 192H268C261.373 192 256 197.373 256 204V244C256 250.627 261.373 256 268 256H308C314.627 256 320 250.627 320 244zM128 148V108C128 101.373 122.627 96 116 96H76C69.373 96 64 101.373 64 108V148C64 154.627 69.373 160 76 160H116C122.627 160 128 154.627 128 148zM224 148V108C224 101.373 218.627 96 212 96H172C165.373 96 160 101.373 160 108V148C160 154.627 165.373 160 172 160H212C218.627 160 224 154.627 224 148zM320 148V12C320 5.373 314.627 0 308 0H268C261.373 0 256 5.373 256 12V148C256 154.627 261.373 160 268 160H308C314.627 160 320 154.627 320 148zM128 52V12C128 5.373 122.627 0 116 0H76C69.373 0 64 5.373 64 12V52C64 58.627 69.373 64 76 64H116C122.627 64 128 58.627 128 52zM224 52V12C224 5.373 218.627 0 212 0H172C165.373 0 160 5.373 160 12V52C160 58.627 165.373 64 172 64H212C218.627 64 224 58.627 224 52z" />
    <glyph glyph-name="calendar-alt"
      unicode="&#xF073;"
      horiz-adv-x="448" d=" M400 384H352V436C352 442.6 346.6 448 340 448H332C325.4 448 320 442.6 320 436V384H128V436C128 442.6 122.6 448 116 448H108C101.4 448 96 442.6 96 436V384H48C21.5 384 0 362.5 0 336V-16C0 -42.5 21.5 -64 48 -64H400C426.5 -64 448 -42.5 448 -16V336C448 362.5 426.5 384 400 384zM48 352H400C408.8 352 416 344.8 416 336V288H32V336C32 344.8 39.2 352 48 352zM400 -32H48C39.2 -32 32 -24.8 32 -16V256H416V-16C416 -24.8 408.8 -32 400 -32zM148 128H108C101.4 128 96 133.4 96 140V180C96 186.6 101.4 192 108 192H148C154.6 192 160 186.6 160 180V140C160 133.4 154.6 128 148 128zM244 128H204C197.4 128 192 133.4 192 140V180C192 186.6 197.4 192 204 192H244C250.6 192 256 186.6 256 180V140C256 133.4 250.6 128 244 128zM340 128H300C293.4 128 288 133.4 288 140V180C288 186.6 293.4 192 300 192H340C346.6 192 352 186.6 352 180V140C352 133.4 346.6 128 340 128zM244 32H204C197.4 32 192 37.4 192 44V84C192 90.6 197.4 96 204 96H244C250.6 96 256 90.6 256 84V44C256 37.4 250.6 32 244 32zM148 32H108C101.4 32 96 37.4 96 44V84C96 90.6 101.4 96 108 96H148C154.6 96 160 90.6 160 84V44C160 37.4 154.6 32 148 32zM340 32H300C293.4 32 288 37.4 288 44V84C288 90.6 293.4 96 300 96H340C346.6 96 352 90.6 352 84V44C352 37.4 346.6 32 340 32z" />
    <glyph glyph-name="calendar-check"
      unicode="&#xF274;"
      horiz-adv-x="448" d=" M400 384H352V436C352 442.627 346.627 448 340 448H332C325.373 448 320 442.627 320 436V384H128V436C128 442.627 122.627 448 116 448H108C101.373 448 96 442.627 96 436V384H48C21.49 384 0 362.51 0 336V-16C0 -42.51 21.49 -64 48 -64H400C426.51 -64 448 -42.51 448 -16V336C448 362.51 426.51 384 400 384zM48 352H400C408.822 352 416 344.822 416 336V288H32V336C32 344.822 39.178 352 48 352zM400 -32H48C39.178 -32 32 -24.822 32 -16V256H416V-16C416 -24.822 408.822 -32 400 -32zM333.533 162.937L198.742 29.227C194.042 24.564 186.454 24.585 181.779 29.273L114.421 96.825C109.738 101.522 109.749 109.126 114.445 113.81L122.95 122.29C127.647 126.973 135.251 126.9620000000001 139.934 122.266L190.376 71.679L308.158 188.516C312.867 193.187 320.471 193.157 325.1430000000001 188.448L333.6010000000001 179.9210000000001C338.2730000000001 175.2120000000001 338.2420000000001 167.6080000000001 333.5330000000001 162.9370000000001z" />
    <glyph glyph-name="calendar-edit"
      unicode="&#xF333;"
      horiz-adv-x="448" d=" M400 384H352V436C352 442.6 346.6 448 340 448H332C325.4 448 320 442.6 320 436V384H128V436C128 442.6 122.6 448 116 448H108C101.4 448 96 442.6 96 436V384H48C21.5 384 0 362.5 0 336V-16C0 -42.5 21.5 -64 48 -64H400C426.5 -64 448 -42.5 448 -16V336C448 362.5 426.5 384 400 384zM48 352H400C408.8 352 416 344.8 416 336V288H32V336C32 344.8 39.2 352 48 352zM400 -32H48C39.2 -32 32 -24.8 32 -16V256H416V-16C416 -24.8 408.8 -32 400 -32zM255.7 178.3L290.3 143.7C292.4000000000001 141.6 292.4000000000001 138.3 290.3 136.3L159.1 5.1L124 0.1C117.1 -0.9 111.1 5 112.1 12L117.1 47.1L248.3 178.3C250.3 180.3 253.7 180.3 255.7 178.3zM330.9 176.9L311.7 157.7000000000001C309.6 155.6 306.3 155.6 304.3 157.7000000000001L269.7 192.3000000000001C267.6 194.4 267.6 197.7000000000001 269.7 199.7000000000001L288.9 218.9C295.7 225.7000000000001 306.8 225.7000000000001 313.6 218.9L330.9 201.6C337.7 194.8 337.7 183.7000000000001 330.9 176.9z" />
    <glyph glyph-name="calendar-exclamation"
      unicode="&#xF334;"
      horiz-adv-x="448" d=" M400 384H352V436C352 442.6 346.6 448 340 448H332C325.4 448 320 442.6 320 436V384H128V436C128 442.6 122.6 448 116 448H108C101.4 448 96 442.6 96 436V384H48C21.5 384 0 362.5 0 336V-16C0 -42.5 21.5 -64 48 -64H400C426.5 -64 448 -42.5 448 -16V336C448 362.5 426.5 384 400 384zM48 352H400C408.8 352 416 344.8 416 336V288H32V336C32 344.8 39.2 352 48 352zM400 -32H48C39.2 -32 32 -24.8 32 -16V256H416V-16C416 -24.8 408.8 -32 400 -32zM212.7 224H235.3C242.2 224 247.7 218.2 247.3 211.3L240.6 91.3C240.2 84.9 235 80 228.6 80H219.3C212.9 80 207.7 85 207.3 91.3L200.6 211.3C200.3 218.2 205.8 224 212.7 224zM252 32C252 16.5 239.5 4 224 4S196 16.5 196 32S208.5 60 224 60S252 47.5 252 32z" />
    <glyph glyph-name="calendar-minus"
      unicode="&#xF272;"
      horiz-adv-x="448" d=" M400 384H352V436C352 442.6 346.6 448 340 448H332C325.4 448 320 442.6 320 436V384H128V436C128 442.6 122.6 448 116 448H108C101.4 448 96 442.6 96 436V384H48C21.5 384 0 362.5 0 336V-16C0 -42.5 21.5 -64 48 -64H400C426.5 -64 448 -42.5 448 -16V336C448 362.5 426.5 384 400 384zM48 352H400C408.8 352 416 344.8 416 336V288H32V336C32 344.8 39.2 352 48 352zM400 -32H48C39.2 -32 32 -24.8 32 -16V256H416V-16C416 -24.8 408.8 -32 400 -32zM308 96H140C133.4 96 128 101.4 128 108V116C128 122.6 133.4 128 140 128H308C314.6 128 320 122.6 320 116V108C320 101.4 314.6 96 308 96z" />
    </font>
</defs>
</svg>
